<svg
    width="58"
    height="58"
    viewBox="0 0 58 58"
    fill="none"
    xmlns="http://www.w3.org/2000/svg"
>
    <path
    d="M56.5383 5.42228C57.0559 4.88644 57.3422 4.16877 57.3358 3.42384C57.3293 2.67891 57.0305 1.96633 56.5037 1.43956C55.977 0.912799 55.2644 0.614003 54.5194 0.607529C53.7745 0.601056 53.0568 0.887424 52.521 1.40495L47.4155 6.51043C45.1001 5.07099 42.3657 4.45715 39.6572 4.7687C36.9486 5.08026 34.4251 6.29889 32.4969 8.22645L29.4626 11.2636C28.5309 12.1959 28.0076 13.46 28.0076 14.778C28.0076 16.0961 28.5309 17.3602 29.4626 18.2925L39.6479 28.4807C40.1096 28.9424 40.6578 29.3087 41.261 29.5586C41.8643 29.8085 42.5108 29.9371 43.1638 29.9371C43.8168 29.9371 44.4634 29.8085 45.0666 29.5586C45.6699 29.3087 46.218 28.9424 46.6797 28.4807L49.714 25.4464C51.6413 23.5188 52.8601 20.9959 53.1721 18.288C53.4842 15.58 52.8712 12.8461 51.4329 10.5306L56.5383 5.42228Z"
    fill="#39A849"
    />
    <path
    d="M25.2859 28.151C25.8034 27.6152 26.0898 26.8975 26.0833 26.1526C26.0768 25.4077 25.778 24.6951 25.2513 24.1683C24.7245 23.6416 24.0119 23.3428 23.267 23.3363C22.522 23.3298 21.8044 23.6162 21.2685 24.1337L17.0921 28.3101L16.2597 27.4777C15.8601 27.0787 15.3185 26.8545 14.7539 26.8545C14.1892 26.8545 13.6476 27.0787 13.2481 27.4777L8.20512 32.5207C6.2778 34.4483 5.05906 36.9711 4.747 39.6791C4.43494 42.3871 5.0479 45.121 6.48625 47.4365L1.38078 52.5448C1.10943 52.8069 0.892988 53.1204 0.744088 53.467C0.595189 53.8136 0.516813 54.1864 0.513535 54.5637C0.510257 54.9409 0.582142 55.315 0.724995 55.6642C0.867849 56.0133 1.07881 56.3306 1.34557 56.5973C1.61233 56.8641 1.92954 57.0751 2.2787 57.2179C2.62787 57.3608 3.00198 57.4326 3.37922 57.4294C3.75646 57.4261 4.12927 57.3477 4.4759 57.1988C4.82253 57.0499 5.13603 56.8335 5.39811 56.5621L10.5064 51.4566C12.8219 52.895 15.5558 53.508 18.2638 53.1959C20.9718 52.8838 23.4946 51.6651 25.4222 49.7378L30.4652 44.6948C30.8642 44.2953 31.0884 43.7537 31.0884 43.189C31.0884 42.6243 30.8642 42.0828 30.4652 41.6832L29.6328 40.8508L33.8092 36.6744C34.3267 36.1385 34.6131 35.4209 34.6066 34.6759C34.6001 33.931 34.3013 33.2184 33.7746 32.6916C33.2478 32.1649 32.5352 31.8661 31.7903 31.8596C31.0454 31.8531 30.3277 32.1395 29.7919 32.657L25.6154 36.8335L21.1094 32.3275L25.2859 28.151Z"
    fill="#39A849"
    />
</svg>