<svg width="16" height="16" viewBox="0 0 16 16" fill="none" xmlns="http://www.w3.org/2000/svg">
<path fill-rule="evenodd" clip-rule="evenodd" d="M8.00002 0.666992C3.95002 0.666992 0.666687 3.95033 0.666687 8.00033C0.666687 12.0503 3.95002 15.3337 8.00002 15.3337C12.05 15.3337 15.3334 12.0503 15.3334 8.00033C15.3334 3.95033 12.05 0.666992 8.00002 0.666992ZM5.80469 6.52899C5.67895 6.40755 5.51055 6.34036 5.33575 6.34188C5.16095 6.34339 4.99375 6.41351 4.87014 6.53711C4.74654 6.66072 4.67642 6.82793 4.6749 7.00272C4.67339 7.17752 4.74058 7.34592 4.86202 7.47166L7.52869 10.1383C7.65371 10.2633 7.82324 10.3335 8.00002 10.3335C8.1768 10.3335 8.34633 10.2633 8.47135 10.1383L11.138 7.47166C11.2595 7.34592 11.3267 7.17752 11.3251 7.00272C11.3236 6.82793 11.2535 6.66072 11.1299 6.53711C11.0063 6.41351 10.8391 6.34339 10.6643 6.34188C10.4895 6.34036 10.3211 6.40755 10.1954 6.52899L8.00002 8.72433L5.80469 6.52899Z" fill="#002D66"/>
</svg>
