<svg width="21" height="16" viewBox="0 0 21 16" fill="none" xmlns="http://www.w3.org/2000/svg">
<path d="M17.85 0H3.15C2.31457 0 1.51335 0.316071 0.922614 0.87868C0.331874 1.44129 0 2.20435 0 3V13C0 13.7956 0.331874 14.5587 0.922614 15.1213C1.51335 15.6839 2.31457 16 3.15 16H17.85C18.6854 16 19.4866 15.6839 20.0774 15.1213C20.6681 14.5587 21 13.7956 21 13V3C21 2.20435 20.6681 1.44129 20.0774 0.87868C19.4866 0.316071 18.6854 0 17.85 0ZM17.85 2L11.025 6.47C10.8654 6.55777 10.6843 6.60397 10.5 6.60397C10.3157 6.60397 10.1346 6.55777 9.975 6.47L3.15 2H17.85Z" fill="white"/>
</svg>
