<svg width="310" height="158" viewBox="0 0 310 158" fill="none" xmlns="http://www.w3.org/2000/svg">
<g clip-path="url(#clip0)">
<path d="M197.995 16.2822C201.662 12.6153 201.662 6.6699 197.995 3.00291C194.328 -0.664077 188.382 -0.664078 184.715 3.00291C181.048 6.6699 181.048 12.6153 184.715 16.2822C188.382 19.9492 194.328 19.9492 197.995 16.2822Z" fill="#F9AA41"/>
<path d="M78.0995 44.1326H63.2695V71.6026H78.0995V44.1326Z" fill="#F9F3D9"/>
<path d="M63.2695 51.0925V53.7425L78.0995 52.0425V51.0925H63.2695Z" fill="black" fill-opacity="0.25"/>
<path d="M79.8395 47.7825H61.5295V51.0925H79.8395V47.7825Z" fill="#C9414E"/>
<path d="M258.6 157.292H307.92C307.23 155.042 305.44 153.282 303.39 152.482C301.19 151.622 298.75 151.752 296.49 152.402C296.91 152.282 297.46 151.532 297.75 151.222C298.45 150.462 299.01 149.672 299.17 148.622C299.35 147.452 299.01 146.272 298.28 145.342C297.07 143.802 294.95 143.242 293.06 143.442C292.97 143.452 292.87 143.462 292.78 143.482C292.41 143.542 292.05 143.632 291.7 143.762C290.18 144.352 288.84 145.392 287.7 146.532C287.48 146.742 287.27 146.962 287.07 147.202C287.07 147.202 290.28 144.532 291.03 142.512C293.81 136.752 287.93 128.402 280.6 130.762C277.66 132.002 275.25 134.542 273.67 137.532C279.53 128.762 269.82 123.422 266.36 131.322C268.49 124.812 265.31 118.002 258.88 121.822C258.79 121.852 258.7 121.902 258.61 121.932V157.292H258.6Z" fill="#699635"/>
<path d="M258.6 157.292H287.66C287.25 155.972 286.2 154.932 284.99 154.462C283.69 153.952 282.25 154.032 280.92 154.412C281.6 153.092 280.67 151.312 279.37 150.792C278.07 150.272 276.61 150.702 275.36 151.352C276.44 150.852 277.25 149.782 277.69 148.592C279.33 145.202 275.86 140.272 271.55 141.672C269.82 142.402 268.4 143.902 267.47 145.662C270.92 140.492 265.2 137.352 263.17 142.002C265.15 136.912 261.33 133.932 258.6 135.082V157.292Z" fill="#83BF4F"/>
<path d="M288.73 129.492C287.95 130.192 286.82 130.102 286.82 130.102C286.82 130.102 286.96 128.872 287.74 128.162C288.52 127.462 289.65 127.552 289.65 127.552C289.65 127.552 289.51 128.782 288.73 129.492Z" fill="#699635"/>
<path d="M266.319 137.642C265.739 138.692 264.489 139.002 264.489 139.002C264.489 139.002 264.18 137.622 264.76 136.572C265.34 135.522 266.589 135.212 266.589 135.212C266.589 135.212 266.899 136.592 266.319 137.642Z" fill="#83BF4F"/>
<path d="M286.36 126.712C286.69 128.192 285.92 129.672 285.92 129.672C285.92 129.672 284.61 128.752 284.27 127.272C283.94 125.792 284.71 124.312 284.71 124.312C284.71 124.312 286.03 125.232 286.36 126.712Z" fill="#699635"/>
<path d="M23.3696 157.163L24.1296 146.163L18.0496 139.123L18.4196 138.823L22.0096 141.893L22.5296 138.823L23.0996 138.973L22.9996 142.793L24.4596 144.213L25.0196 132.983L22.0396 129.293L22.3696 129.013L25.4596 131.483L25.6596 125.603H26.4596L26.9896 132.823L27.7696 140.003L31.7896 135.653L32.1696 135.893L30.6996 138.203L33.2496 138.163V138.593L30.4596 139.023L27.7196 143.313L28.3496 157.163H23.3696Z" fill="#89664C"/>
<path d="M49.3396 117.402C49.3896 116.032 49.2896 114.622 48.7096 113.372C48.1296 112.132 47.0096 111.072 45.6496 110.882C44.8696 110.772 43.9896 110.992 43.5096 111.612C45.0396 109.712 46.4396 107.622 47.0396 105.262C47.6396 102.892 47.3396 100.192 45.7696 98.3325C44.2596 96.5325 41.7196 95.7625 39.3996 96.1025C37.0796 96.4425 34.9696 97.8025 33.4496 99.5825C33.6196 95.9125 34.4596 92.2125 33.7896 88.5924C33.1196 84.9824 30.2496 81.3624 26.5696 81.5224C24.0796 81.6324 21.9896 83.4125 20.3996 85.3325C17.1096 89.3225 15.0796 94.3325 14.6696 99.4825C13.7096 98.1725 12.7396 96.8425 11.4696 95.8325C10.1896 94.8325 8.54958 94.1825 6.94958 94.4425C4.30958 94.8725 2.63958 97.5525 1.99958 100.152C1.31958 102.922 1.40958 105.872 2.27958 108.592C3.71958 113.082 7.07958 116.642 10.3496 120.042C8.84958 119.372 6.95958 120.272 6.22958 121.752C5.23958 123.752 6.17958 126.062 7.54958 127.652C8.69958 128.992 10.2296 129.962 11.8096 130.752C20.6596 135.192 31.4296 134.552 40.3596 130.682C43.6796 129.242 45.9896 126.872 47.7496 123.702C47.7596 123.692 47.7596 123.682 47.7696 123.662C48.8196 121.762 49.2596 119.572 49.3396 117.402Z" fill="#699635"/>
<path d="M20.9194 136.042C20.5094 135.562 19.2894 135.372 19.3094 136.252C18.9494 133.552 15.4194 134.572 17.0694 137.152C14.3594 134.332 11.9494 137.942 15.4594 139.552C12.4694 139.612 14.1394 143.872 16.7594 142.012C15.6994 142.652 16.3794 144.042 17.5194 143.862C20.5494 143.362 23.6594 138.512 20.9194 136.042Z" fill="#699635"/>
<path d="M15.6194 128.062C15.3794 127.342 15.1994 126.572 15.3094 125.822C15.4194 125.072 15.8494 124.333 16.5394 124.013C16.9394 123.833 17.4394 123.802 17.7994 124.062C16.6794 123.292 15.6094 122.413 14.9094 121.252C14.2094 120.092 13.9394 118.602 14.4794 117.363C14.9994 116.163 16.2194 115.353 17.5094 115.163C18.7994 114.973 20.1294 115.362 21.2294 116.062C20.5594 114.132 19.5094 112.302 19.2894 110.272C19.0694 108.242 20.0194 105.862 21.9994 105.362C23.3394 105.022 24.7394 105.633 25.8894 106.403C28.2794 107.993 30.1594 110.343 31.1994 113.013C31.4994 112.163 31.7994 111.302 32.3194 110.562C32.8394 109.822 33.6094 109.212 34.4994 109.102C35.9694 108.912 37.2894 110.072 38.0494 111.342C38.8594 112.702 39.2794 114.293 39.2494 115.873C39.1994 118.493 37.9794 120.922 36.7894 123.252C37.4794 122.652 38.6294 122.832 39.2494 123.502C40.0894 124.412 39.9594 125.782 39.4894 126.852C39.0894 127.752 38.4294 128.502 37.7194 129.182C33.7194 132.962 27.8894 134.343 22.5294 133.713C20.5394 133.483 18.9294 132.582 17.4794 131.182C17.4694 131.172 17.4694 131.173 17.4594 131.163C16.5994 130.303 16.0094 129.212 15.6194 128.062Z" fill="#83BF4F"/>
<path d="M5.58948 118.863C6.09948 119.783 5.79948 120.923 5.79948 120.923C5.79948 120.923 4.66948 120.573 4.16948 119.653C3.65948 118.733 3.95948 117.593 3.95948 117.593C3.95948 117.593 5.07948 117.933 5.58948 118.863Z" fill="#699635"/>
<path d="M2.54951 120.802C3.98951 120.722 5.22951 121.772 5.22951 121.772C5.22951 121.772 4.12951 122.962 2.67951 123.042C1.23951 123.132 -0.000488281 122.072 -0.000488281 122.072C-0.000488281 122.072 1.09951 120.892 2.54951 120.802Z" fill="#699635"/>
<path d="M34.2195 139.442C33.6995 139.222 33.4495 138.652 33.4495 138.652C33.4495 138.652 34.0395 138.422 34.5595 138.642C35.0795 138.862 35.3295 139.432 35.3295 139.432C35.3295 139.432 34.7395 139.662 34.2195 139.442Z" fill="#699635"/>
<path d="M34.8494 137.623C34.2694 138.133 33.4094 138.103 33.4094 138.103C33.4094 138.103 33.4794 137.243 34.0494 136.723C34.6294 136.213 35.4894 136.243 35.4894 136.243C35.4894 136.243 35.4294 137.103 34.8494 137.623Z" fill="#699635"/>
<path d="M34.0594 107.402C33.3294 108.152 32.1494 108.192 32.1494 108.192C32.1494 108.192 32.1594 107.012 32.8994 106.262C33.6294 105.512 34.8094 105.472 34.8094 105.472C34.8094 105.472 34.7994 106.642 34.0594 107.402Z" fill="#83BF4F"/>
<path d="M16.3096 113.373C16.9896 113.633 17.3396 114.373 17.3396 114.373C17.3396 114.373 16.5896 114.693 15.8996 114.433C15.2196 114.173 14.8696 113.433 14.8696 113.433C14.8696 113.433 15.6296 113.113 16.3096 113.373Z" fill="#83BF4F"/>
<path d="M31.3196 105.052C31.8196 106.412 31.1696 107.892 31.1696 107.892C31.1696 107.892 29.7096 107.182 29.2096 105.822C28.7096 104.462 29.3596 102.982 29.3596 102.982C29.3596 102.982 30.8196 103.692 31.3196 105.052Z" fill="#83BF4F"/>
<path d="M19.1596 142.262C18.8896 142.302 18.6296 142.302 18.3796 142.272C18.0196 142.222 17.6596 142.072 17.4196 141.782C17.2196 141.542 17.1096 141.162 17.2196 140.862C17.3796 140.422 17.9496 140.532 18.2096 140.202C18.3496 140.022 18.3596 139.762 18.3296 139.532C18.2996 139.302 18.2396 139.072 18.2996 138.842C18.3596 138.622 18.5696 138.412 18.7996 138.462C18.9696 138.502 19.0796 138.662 19.1896 138.782C19.2596 138.852 19.3496 138.922 19.4496 138.922C19.8796 138.912 19.9796 138.272 20.4296 138.352C20.8996 138.432 21.1596 138.922 21.2896 139.332C21.5196 140.052 21.4096 140.842 20.9096 141.432C20.4696 141.962 19.8196 142.172 19.1596 142.262Z" fill="#83BF4F"/>
<path d="M207.55 35.3725L102.56 33.5725L41.7495 92.0825H88.4895H219.76H266.49L207.55 35.3725Z" fill="#ED4C5C"/>
<path d="M261.3 92.0825H193.08V153.103H261.3V92.0825Z" fill="#F9F3D9"/>
<path d="M261.3 92.0825H253.84V153.103H261.3V92.0825Z" fill="#F9F3D9"/>
<path d="M200.54 92.0825H193.08V153.103H200.54V92.0825Z" fill="#F9F3D9"/>
<path d="M253.83 100.913H200.53V101.663H253.83V100.913Z" fill="black" fill-opacity="0.07"/>
<path d="M253.83 109.513H200.53V110.263H253.83V109.513Z" fill="black" fill-opacity="0.07"/>
<path d="M253.83 118.113H200.53V118.863H253.83V118.113Z" fill="black" fill-opacity="0.07"/>
<path d="M253.83 126.703H200.53V127.453H253.83V126.703Z" fill="black" fill-opacity="0.07"/>
<path d="M253.83 135.302H200.53V136.052H253.83V135.302Z" fill="black" fill-opacity="0.07"/>
<path d="M253.83 143.903H200.53V144.653H253.83V143.903Z" fill="black" fill-opacity="0.07"/>
<path d="M200.53 100.913H193.07V101.663H200.53V100.913Z" fill="black" fill-opacity="0.07"/>
<path d="M200.53 109.513H193.07V110.263H200.53V109.513Z" fill="black" fill-opacity="0.07"/>
<path d="M200.53 118.113H193.07V118.863H200.53V118.113Z" fill="black" fill-opacity="0.07"/>
<path d="M200.53 126.703H193.07V127.453H200.53V126.703Z" fill="black" fill-opacity="0.07"/>
<path d="M200.53 135.302H193.07V136.052H200.53V135.302Z" fill="black" fill-opacity="0.07"/>
<path d="M200.53 143.903H193.07V144.653H200.53V143.903Z" fill="black" fill-opacity="0.07"/>
<path d="M261.3 100.913H253.84V101.663H261.3V100.913Z" fill="black" fill-opacity="0.07"/>
<path d="M261.3 109.513H253.84V110.263H261.3V109.513Z" fill="black" fill-opacity="0.07"/>
<path d="M261.3 118.113H253.84V118.863H261.3V118.113Z" fill="black" fill-opacity="0.07"/>
<path d="M261.3 126.703H253.84V127.453H261.3V126.703Z" fill="black" fill-opacity="0.07"/>
<path d="M261.3 135.302H253.84V136.052H261.3V135.302Z" fill="black" fill-opacity="0.07"/>
<path d="M261.3 143.903H253.84V144.653H261.3V143.903Z" fill="black" fill-opacity="0.07"/>
<path d="M115.169 92.0825H46.9495V153.103H115.169V92.0825Z" fill="#F9F3D9"/>
<path d="M114.589 100.913H46.9495V101.663H114.589V100.913Z" fill="black" fill-opacity="0.07"/>
<path d="M114.589 109.513H46.9495V110.263H114.589V109.513Z" fill="black" fill-opacity="0.07"/>
<path d="M114.589 118.113H46.9495V118.863H114.589V118.113Z" fill="black" fill-opacity="0.07"/>
<path d="M114.589 126.703H46.9495V127.453H114.589V126.703Z" fill="black" fill-opacity="0.07"/>
<path d="M114.589 135.302H46.9495V136.052H114.589V135.302Z" fill="black" fill-opacity="0.07"/>
<path d="M114.589 143.903H46.9495V144.653H114.589V143.903Z" fill="black" fill-opacity="0.07"/>
<path d="M103.52 104.633H58.5996V153.113H103.52V104.633Z" fill="#ED4C5C"/>
<path d="M103.52 106.763L58.5996 114.053V104.633H103.52V106.763Z" fill="black" fill-opacity="0.15"/>
<path d="M115.169 153.103H112.179L114.049 92.0825H115.169V153.103Z" fill="black" fill-opacity="0.25"/>
<path d="M115.169 93.0925L46.9495 96.8225V92.0825H115.169V93.0925Z" fill="black" fill-opacity="0.25"/>
<path d="M253.84 92.0825V93.5025L261.3 93.0925V92.0825H253.84Z" fill="#A9575A"/>
<path fill-rule="evenodd" clip-rule="evenodd" d="M193.07 96.8225V92.0825H200.53H200.53H253.84V93.5025L200.53 96.4125H200.53L193.07 96.8225Z" fill="black" fill-opacity="0.25"/>
<path d="M193.079 153.103H115.169V58.2325L154.119 27.8325L193.079 58.2325V153.103Z" fill="#F9F3D9"/>
<path d="M154.119 27.8325L115.169 58.2325V65.1125L152.309 36.3925L193.069 68.2125V58.2325L154.119 27.8325Z" fill="black" fill-opacity="0.25"/>
<path d="M199.26 59.0426L154.12 25.1726L109.01 59.3826L113.41 63.7826L154.12 32.0126L194.66 63.6426L199.26 59.0426Z" fill="#F9F3D9"/>
<path d="M263.419 153.103H42.4595V157.283H263.419V153.103Z" fill="#39A849"/>
<path d="M96.1196 115.123H66.1296V153.103H96.1196V115.123Z" fill="white"/>
<path d="M79.9895 116.863H68.2896V150.993H79.9895V116.863Z" fill="#89664C"/>
<path d="M93.8296 116.863H82.1296V150.993H93.8296V116.863Z" fill="#89664C"/>
<path d="M96.1096 114.593H66.1296H65.8296H65.4596L65.0896 153.103H66.1296V115.123H96.1096V114.593Z" fill="#A9575A"/>
<path d="M248.48 115.123H205.62V140.933H248.48V115.123Z" fill="white"/>
<path d="M214.82 116.863H207.61V138.913H214.82V116.863Z" fill="#33ADEF"/>
<path d="M237.46 116.863H216.91V138.913H237.46V116.863Z" fill="#33ADEF"/>
<path d="M246.76 116.863H239.55V138.913H246.76V116.863Z" fill="#33ADEF"/>
<path d="M248.48 114.792H205.62H204.98L204.46 140.942H205.62V115.122H248.48V114.792Z" fill="black" fill-opacity="0.25"/>
<path d="M205.619 140.939L248.48 140.722V141.332L204.46 143.202V140.939H205.619Z" fill="black" fill-opacity="0.25"/>
<path d="M139.22 116.863H127.52V150.993H139.22V116.863Z" fill="#33ADEF"/>
<path d="M153.06 116.863H141.36V150.993H153.06V116.863Z" fill="#33ADEF"/>
<path d="M166.889 116.863H155.189V150.993H166.889V116.863Z" fill="#33ADEF"/>
<path d="M180.72 116.863H169.02V150.993H180.72V116.863Z" fill="#33ADEF"/>
<path d="M182.09 114.792H124.69L123.8 153.102H125.6V115.122H182.09V114.792Z" fill="black" fill-opacity="0.25"/>
<path d="M153.06 58.8425H141.36V92.9725H153.06V58.8425Z" fill="#33ADEF"/>
<path d="M166.89 58.8425H155.19V92.9725H166.89V58.8425Z" fill="#33ADEF"/>
<path d="M168.78 56.7725H138.63L137.74 95.0825H139.55V57.1025H168.78V56.7725Z" fill="black" fill-opacity="0.25"/>
<path d="M184.76 94.8325H123.48V97.9825H184.76V94.8325Z" fill="#C9414E"/>
<path d="M184.76 97.9825H123.48V94.8325L121.13 97.9825V100.943L184.76 98.6825V97.9825Z" fill="black" fill-opacity="0.25"/>
<path d="M127.15 86.2524H126.16V94.8324H127.15V86.2524Z" fill="#C9414E"/>
<path d="M160.35 86.2524H159.36V94.8324H160.35V86.2524Z" fill="#C9414E"/>
<path d="M149.28 86.2524H148.29V94.8324H149.28V86.2524Z" fill="#C9414E"/>
<path d="M171.41 86.2524H170.42V94.8324H171.41V86.2524Z" fill="#C9414E"/>
<path d="M138.22 86.2524H137.23V94.8324H138.22V86.2524Z" fill="#C9414E"/>
<path d="M182.48 86.2524H181.49V94.8324H182.48V86.2524Z" fill="#C9414E"/>
<path d="M127.15 86.2524H126.16V87.0624H127.15V86.2524Z" fill="black" fill-opacity="0.3"/>
<path d="M160.35 86.2524H159.36V87.0624H160.35V86.2524Z" fill="black" fill-opacity="0.3"/>
<path d="M149.28 86.2524H148.29V87.0624H149.28V86.2524Z" fill="black" fill-opacity="0.3"/>
<path d="M171.41 86.2524H170.42V87.0624H171.41V86.2524Z" fill="black" fill-opacity="0.3"/>
<path d="M138.22 86.2524H137.23V87.0624H138.22V86.2524Z" fill="black" fill-opacity="0.3"/>
<path d="M182.48 86.2524H181.49V87.0624H182.48V86.2524Z" fill="black" fill-opacity="0.3"/>
<path d="M183.38 86.2525H124.8V84.0825L183.38 84.5825V86.2525Z" fill="#C9414E"/>
<path d="M45.3395 148.603H11.2795V149.923H45.3395V148.603Z" fill="#B6CCD8"/>
<path d="M45.3395 153.963H11.2795V155.283H45.3395V153.963Z" fill="#B6CCD8"/>
<path d="M14.8896 157.163H12.5796C12.4396 157.163 12.3196 157.053 12.3196 156.923V147.043C12.3196 146.993 12.3396 146.933 12.3696 146.893L13.5296 145.503C13.6296 145.383 13.8296 145.383 13.9396 145.503L15.0996 146.893C15.1396 146.933 15.1496 146.983 15.1496 147.043V156.923C15.1396 157.053 15.0296 157.163 14.8896 157.163Z" fill="white"/>
<path d="M19.7096 157.163H17.3996C17.2596 157.163 17.1396 157.053 17.1396 156.923V147.043C17.1396 146.993 17.1596 146.933 17.1896 146.893L18.3496 145.503C18.4496 145.383 18.6496 145.383 18.7596 145.503L19.9196 146.893C19.9596 146.933 19.9696 146.983 19.9696 147.043V156.923C19.9696 157.053 19.8596 157.163 19.7096 157.163Z" fill="white"/>
<path d="M24.5395 157.163H22.2295C22.0895 157.163 21.9695 157.053 21.9695 156.923V147.043C21.9695 146.993 21.9895 146.933 22.0195 146.893L23.1795 145.503C23.2795 145.383 23.4795 145.383 23.5895 145.503L24.7495 146.893C24.7895 146.933 24.7995 146.983 24.7995 147.043V156.923C24.7995 157.053 24.6795 157.163 24.5395 157.163Z" fill="white"/>
<path d="M29.3696 157.163H27.0596C26.9196 157.163 26.7996 157.053 26.7996 156.923V147.043C26.7996 146.993 26.8196 146.933 26.8496 146.893L28.0096 145.503C28.1096 145.383 28.3096 145.383 28.4196 145.503L29.5796 146.893C29.6196 146.933 29.6296 146.983 29.6296 147.043V156.923C29.6296 157.053 29.5096 157.163 29.3696 157.163Z" fill="white"/>
<path d="M34.1996 157.163H31.8896C31.7496 157.163 31.6296 157.053 31.6296 156.923V147.043C31.6296 146.993 31.6496 146.933 31.6796 146.893L32.8396 145.503C32.9396 145.383 33.1396 145.383 33.2496 145.503L34.4096 146.893C34.4496 146.933 34.4596 146.983 34.4596 147.043V156.923C34.4496 157.053 34.3396 157.163 34.1996 157.163Z" fill="white"/>
<path d="M39.0195 157.163H36.7095C36.5695 157.163 36.4495 157.053 36.4495 156.923V147.043C36.4495 146.993 36.4695 146.933 36.4995 146.893L37.6595 145.503C37.7595 145.383 37.9595 145.383 38.0695 145.503L39.2295 146.893C39.2695 146.933 39.2795 146.983 39.2795 147.043V156.923C39.2795 157.053 39.1695 157.163 39.0195 157.163Z" fill="white"/>
<path d="M43.8495 157.163H41.5395C41.3995 157.163 41.2795 157.053 41.2795 156.923V147.043C41.2795 146.993 41.2995 146.933 41.3295 146.893L42.4895 145.503C42.5895 145.383 42.7895 145.383 42.8995 145.503L44.0595 146.893C44.0995 146.933 44.1095 146.983 44.1095 147.043V156.923C44.1095 157.053 43.9995 157.163 43.8495 157.163Z" fill="white"/>
<path d="M304.429 148.603H256.149V149.923H304.429V148.603Z" fill="#B6CCD8"/>
<path d="M304.429 153.963H256.149V155.283H304.429V153.963Z" fill="#B6CCD8"/>
<path d="M259.759 157.163H257.449C257.309 157.163 257.189 157.053 257.189 156.923V147.043C257.189 146.993 257.209 146.933 257.239 146.893L258.399 145.503C258.499 145.383 258.699 145.383 258.809 145.503L259.969 146.893C260.009 146.933 260.019 146.983 260.019 147.043V156.923C260.009 157.053 259.899 157.163 259.759 157.163Z" fill="white"/>
<path d="M264.579 157.163H262.27C262.13 157.163 262.01 157.053 262.01 156.923V147.043C262.01 146.993 262.03 146.933 262.06 146.893L263.22 145.503C263.32 145.383 263.52 145.383 263.63 145.503L264.79 146.893C264.83 146.933 264.84 146.983 264.84 147.043V156.923C264.84 157.053 264.729 157.163 264.579 157.163Z" fill="white"/>
<path d="M269.409 157.163H267.099C266.959 157.163 266.839 157.053 266.839 156.923V147.043C266.839 146.993 266.859 146.933 266.889 146.893L268.049 145.503C268.149 145.383 268.349 145.383 268.459 145.503L269.619 146.893C269.659 146.933 269.669 146.983 269.669 147.043V156.923C269.669 157.053 269.549 157.163 269.409 157.163Z" fill="white"/>
<path d="M274.239 157.163H271.929C271.789 157.163 271.669 157.053 271.669 156.923V147.043C271.669 146.993 271.689 146.933 271.719 146.893L272.879 145.503C272.979 145.383 273.179 145.383 273.289 145.503L274.449 146.893C274.489 146.933 274.499 146.983 274.499 147.043V156.923C274.499 157.053 274.379 157.163 274.239 157.163Z" fill="white"/>
<path d="M279.07 157.163H276.76C276.62 157.163 276.5 157.053 276.5 156.923V147.043C276.5 146.993 276.519 146.933 276.549 146.893L277.71 145.503C277.81 145.383 278.01 145.383 278.12 145.503L279.28 146.893C279.32 146.933 279.329 146.983 279.329 147.043V156.923C279.329 157.053 279.21 157.163 279.07 157.163Z" fill="white"/>
<path d="M283.899 157.163H281.589C281.449 157.163 281.329 157.053 281.329 156.923V147.043C281.329 146.993 281.349 146.933 281.379 146.893L282.539 145.503C282.639 145.383 282.839 145.383 282.949 145.503L284.109 146.893C284.149 146.933 284.159 146.983 284.159 147.043V156.923C284.149 157.053 284.039 157.163 283.899 157.163Z" fill="white"/>
<path d="M288.719 157.163H286.409C286.269 157.163 286.149 157.053 286.149 156.923V147.043C286.149 146.993 286.169 146.933 286.199 146.893L287.359 145.503C287.459 145.383 287.659 145.383 287.769 145.503L288.929 146.893C288.969 146.933 288.979 146.983 288.979 147.043V156.923C288.979 157.053 288.869 157.163 288.719 157.163Z" fill="white"/>
<path d="M293.549 157.163H291.239C291.099 157.163 290.979 157.053 290.979 156.923V147.043C290.979 146.993 290.999 146.933 291.029 146.893L292.189 145.503C292.289 145.383 292.489 145.383 292.599 145.503L293.759 146.893C293.799 146.933 293.809 146.983 293.809 147.043V156.923C293.809 157.053 293.689 157.163 293.549 157.163Z" fill="white"/>
<path d="M298.38 157.163H296.07C295.93 157.163 295.81 157.053 295.81 156.923V147.043C295.81 146.993 295.83 146.933 295.86 146.893L297.02 145.503C297.12 145.383 297.32 145.383 297.43 145.503L298.59 146.893C298.63 146.933 298.64 146.983 298.64 147.043V156.923C298.64 157.053 298.52 157.163 298.38 157.163Z" fill="white"/>
<path d="M303.209 157.163H300.899C300.759 157.163 300.639 157.053 300.639 156.923V147.043C300.639 146.993 300.659 146.933 300.689 146.893L301.849 145.503C301.949 145.383 302.149 145.383 302.259 145.503L303.419 146.893C303.459 146.933 303.469 146.983 303.469 147.043V156.923C303.469 157.053 303.349 157.163 303.209 157.163Z" fill="white"/>
<path d="M309.129 156.792H8.12939V157.792H309.129V156.792Z" fill="#39A849"/>
<path d="M68.3398 116.923H79.9175L79.8785 143.547L68.3398 116.923Z" fill="black" fill-opacity="0.2"/>
<path d="M82.252 116.923H93.8296L93.7907 143.547L82.252 116.923Z" fill="black" fill-opacity="0.2"/>
<path d="M127.642 116.863H139.219L139.181 143.487L127.642 116.863Z" fill="white" fill-opacity="0.14"/>
<path d="M141.482 116.863H153.06L153.021 143.487L141.482 116.863Z" fill="white" fill-opacity="0.14"/>
<path d="M155.189 116.863H166.767L166.728 143.487L155.189 116.863Z" fill="white" fill-opacity="0.14"/>
<path d="M169.142 116.863H180.719L180.681 143.487L169.142 116.863Z" fill="white" fill-opacity="0.14"/>
<path d="M207.728 116.863H214.82L214.796 133.17L207.728 116.863Z" fill="white" fill-opacity="0.14"/>
<path d="M239.668 116.863H246.76L246.736 133.17L239.668 116.863Z" fill="white" fill-opacity="0.14"/>
<path d="M229.452 116.798H237.46L237.433 135.212L229.452 116.798Z" fill="white" fill-opacity="0.14"/>
<path d="M142.32 58.8425H153.06L153.024 83.5405L142.32 58.8425Z" fill="white" fill-opacity="0.14"/>
<path d="M156.15 58.8425H166.89L166.854 83.5405L156.15 58.8425Z" fill="white" fill-opacity="0.14"/>
</g>
<defs>
<clipPath id="clip0">
<rect width="309.12" height="157.54" fill="white" transform="translate(-0.000488281 0.252441)"/>
</clipPath>
</defs>
</svg>
