<svg width="138" height="126" viewBox="0 0 138 126" fill="none" xmlns="http://www.w3.org/2000/svg">
<path d="M121.584 119.67V121.856H68.6456H15.7069V119.67V117.483H68.6456H121.584V119.67Z" fill="#83BF4F"/>
<path fill-rule="evenodd" clip-rule="evenodd" d="M79.232 94.1049V113.313H68.4799H57.7278V94.1049V74.8967H68.4799H79.232V94.1049ZM59.382 93.3966C59.2883 91.5735 60.5814 89.943 62.3794 89.6173C63.6046 89.3954 64.8878 89.8369 65.6894 90.7563C66.1534 91.2885 66.3999 91.7373 66.5555 92.3329C66.6465 92.6816 66.6786 93.4213 66.6188 93.7953C66.4967 94.5602 66.1269 95.2692 65.5511 95.8427C65.072 96.3198 64.6487 96.5649 64.0063 96.7368C63.6422 96.8342 63.5753 96.8415 63.0284 96.8435C62.4939 96.8455 62.4082 96.8373 62.0722 96.7525C61.6404 96.6435 61.195 96.4361 60.8645 96.1901C60.5267 95.9387 60.4322 95.8431 60.156 95.4739C59.6698 94.8241 59.4211 94.1565 59.382 93.3966Z" fill="#89664C"/>
<path d="M77.1814 42.5054V45.9703H73.8989H70.6163L70.5945 44.734C70.5825 44.0541 70.5645 42.5517 70.5546 41.3953C70.5446 40.2389 70.5292 39.2361 70.5205 39.1667L70.5046 39.0405H73.843H77.1814V42.5054Z" fill="#53C1FE"/>
<path d="M66.3904 40.4954C66.4025 41.2956 66.4223 42.8549 66.4345 43.9603L66.4567 45.9703H63.1972H59.9377V42.5054V39.0405H63.153H66.3684L66.3904 40.4954Z" fill="#53C1FE"/>
<path d="M66.5165 50.6378C66.5184 50.9292 66.5373 52.4808 66.5585 54.0859L66.597 57.0041H63.2674L59.9377 57.0041V53.556V50.1079H63.2254H66.5131L66.5165 50.6378Z" fill="#53C1FE"/>
<path d="M77.1814 53.556V57.0041H73.9661H70.7508L70.7288 55.5828C70.7167 54.8011 70.6968 53.2495 70.6846 52.1347L70.6624 50.1079H73.9219H77.1814V53.556Z" fill="#53C1FE"/>
<path fill-rule="evenodd" clip-rule="evenodd" d="M69.3844 21.9362C69.8079 22.2306 70.5998 22.7798 71.1441 23.1566C71.6884 23.5334 72.3149 23.9718 72.5363 24.1309C72.7577 24.29 73.0219 24.4727 73.1234 24.5369C73.3033 24.6506 73.6468 24.8902 74.4318 25.4493C74.644 25.6004 75.1799 25.9743 75.6227 26.2801C76.0656 26.5859 76.9865 27.2241 77.6692 27.6983L79.3465 28.8633C79.5864 29.0298 79.9185 29.2648 80.0846 29.3856C80.2507 29.5063 80.8243 29.9072 81.3594 30.2764C82.8915 31.3335 84.6984 32.5882 85.2845 33.002C86.0296 33.528 87.9326 34.8525 90.6178 36.7142C91.134 37.0721 91.6746 37.4528 91.8193 37.5604C91.9639 37.6679 92.3417 37.9302 92.6588 38.1433C92.9759 38.3564 93.7049 38.86 94.2789 39.2624C95.217 39.9202 95.8802 40.3819 98.3986 42.1302C98.8117 42.417 99.5173 42.9099 99.9667 43.2255C100.811 43.8185 102.525 45.0096 104.105 46.1003C104.603 46.4443 105.101 46.7946 105.212 46.8787C105.323 46.9629 105.851 47.3336 106.386 47.7026C107.826 48.6955 109.686 49.9863 110.424 50.5045C111.01 50.9157 112.03 51.6291 112.4 51.8862L112.542 51.9853L112.534 82.6568L112.525 113.328L97.9405 113.337L83.3555 113.345V92.0514V70.7575H68.4602H53.5649V92.0513V113.345H39.089H24.613V82.6013V51.8575L25.5608 51.1969C26.082 50.8336 26.6972 50.4036 26.9278 50.2413C27.1585 50.079 28.0341 49.4718 28.8736 48.8919C29.7132 48.3119 30.8575 47.5184 31.4167 47.1284C31.9758 46.7384 32.7643 46.1922 33.1687 45.9147C33.5733 45.6371 34.4141 45.0552 35.0373 44.6214C35.6604 44.1877 36.6987 43.4674 37.3445 43.0209C38.5578 42.182 39.3963 41.5994 40.5819 40.7716C40.9601 40.5074 41.9565 39.8168 42.796 39.2368C43.6356 38.6568 44.6546 37.9505 45.0605 37.6672C46.5685 36.6147 47.1068 36.2408 48.4824 35.2898C49.8625 34.3356 51.2029 33.4043 52.1391 32.7489C52.3975 32.568 53.3033 31.9403 54.152 31.3538C55.0008 30.7674 56.1223 29.9889 56.6442 29.624C57.1662 29.259 57.8835 28.7635 58.2382 28.523C58.593 28.2825 59.0642 27.956 59.2853 27.7975C59.5065 27.6389 60.0573 27.2543 60.5094 26.9428C62.5161 25.5599 64.5262 24.1658 65.6625 23.3689C67.2345 22.2665 68.5469 21.3749 68.5791 21.3873C68.5985 21.3948 68.9609 21.6418 69.3844 21.9362ZM55.8126 61.1702V48.0339V34.8977H68.5609H81.3091V48.0339V61.1702H68.5609H55.8126Z" fill="#F9F3D9"/>
<path d="M112.544 22.8753C112.548 27.1354 112.544 30.6208 112.534 30.6208C112.515 30.6208 111.166 29.6859 110.22 29.0166C109.301 28.3665 108.358 27.7053 106.966 26.7347C106.228 26.2202 105.181 25.4876 104.638 25.1068C102.944 23.9165 102.696 23.7439 102.556 23.6591L102.42 23.5766V19.3447V15.1128L107.478 15.1213L112.535 15.1298L112.544 22.8753Z" fill="#C4C4C4"/>
<path d="M69.0618 5.25221C69.2411 5.37712 69.4282 5.50017 69.4776 5.52574C69.5271 5.5513 69.6723 5.65226 69.8004 5.75015C70.012 5.91179 71.0847 6.66477 72.9774 7.98025C73.3649 8.24957 73.8253 8.57627 74.0006 8.70622C74.1759 8.83621 74.5684 9.10798 74.8728 9.31016C75.1773 9.51233 75.5396 9.76331 75.678 9.8679C75.8164 9.97249 76.307 10.3209 76.7683 10.6422C79.6776 12.6685 80.4636 13.2181 82.3783 14.5647C82.8539 14.8992 83.862 15.6043 84.6185 16.1316C86.3612 17.3463 87.2254 17.9529 88.0908 18.5689C88.469 18.8382 88.809 19.0707 88.8462 19.0855C88.8835 19.1004 89.0647 19.2249 89.2488 19.3621C89.433 19.4994 90.0592 19.9428 90.6404 20.3473C92.6405 21.7396 93.2074 22.1376 93.4416 22.3137C93.5708 22.4108 93.918 22.6505 94.2132 22.8462C94.5085 23.042 94.8859 23.3031 95.0519 23.4265C95.218 23.5499 95.8068 23.9662 96.3603 24.3516C98.2589 25.6735 99.2455 26.3656 99.2622 26.3875C99.2714 26.3995 99.5054 26.5606 99.7822 26.7453C100.059 26.9302 100.436 27.1898 100.621 27.3223C101.087 27.6571 102.355 28.5469 103.959 29.6659C105.554 30.7781 106.45 31.4073 107.465 32.126C107.871 32.4136 108.233 32.6611 108.27 32.6759C108.308 32.6907 108.413 32.7622 108.505 32.8346C108.655 32.9527 109.812 33.7648 111.675 35.0603C112.035 35.3105 112.472 35.6213 112.646 35.7509C112.821 35.8805 113.259 36.185 113.619 36.4274C113.98 36.6698 114.366 36.937 114.476 37.0212C114.587 37.1054 115.13 37.4896 115.684 37.8751C116.237 38.2606 117.133 38.8874 117.675 39.268C118.216 39.6485 118.98 40.1793 119.373 40.4476C119.765 40.7159 120.198 41.0199 120.334 41.1231C120.47 41.2263 120.907 41.5357 121.303 41.8106C121.7 42.0855 122.591 42.706 123.283 43.1894C123.974 43.6729 124.865 44.2926 125.262 44.5665C125.659 44.8404 126.013 45.0916 126.05 45.1246C126.109 45.1777 127.442 46.1077 127.711 46.2841C127.768 46.3211 128.376 46.7461 129.062 47.2285C129.749 47.7109 130.578 48.2918 130.906 48.5193L131.5 48.9329L131.176 49.3578C130.997 49.5914 130.413 50.3578 129.878 51.0609C129.344 51.764 128.75 52.536 128.559 52.7765C128.367 53.017 128.144 53.3122 128.062 53.4325C127.98 53.5528 127.776 53.8252 127.61 54.038C127.443 54.2508 126.995 54.8293 126.615 55.3237L125.923 56.2226L125.718 56.0747C125.5 55.9171 124.142 54.9671 122.515 53.8339C121.968 53.4533 121.352 53.0219 121.144 52.8751C120.937 52.7284 120.611 52.5057 120.419 52.3803C120.228 52.2548 119.937 52.0527 119.773 51.9311C119.609 51.8096 119.09 51.4438 118.619 51.1182C117.242 50.1651 115.337 48.8418 114.577 48.3102C113.1 47.2774 112.22 46.6637 110.97 45.7965C109.333 44.6601 108.236 43.8942 107.448 43.3375C107.107 43.0964 106.759 42.8592 106.676 42.8104C106.593 42.7617 106.389 42.6218 106.223 42.4996C105.94 42.2913 105.47 41.963 103.137 40.347C102.62 39.9891 102.19 39.6864 102.181 39.6742C102.16 39.6469 101.218 38.9989 100.933 38.8161C100.818 38.7421 100.607 38.5955 100.465 38.4903C100.323 38.3851 99.8095 38.023 99.3236 37.6857C98.8378 37.3484 97.9295 36.7154 97.3053 36.2791C96.681 35.8428 96.0318 35.3919 95.8627 35.2771C95.0741 34.742 94.7681 34.5299 94.5337 34.3559C94.3943 34.2526 93.9558 33.9434 93.5591 33.669C91.1443 31.9984 89.619 30.9369 88.0181 29.8128C87.606 29.5234 87.2217 29.2585 87.1641 29.2241C87.1065 29.1897 86.6385 28.8652 86.1241 28.503C85.6097 28.1409 85.0152 27.7255 84.803 27.58C84.5909 27.4345 84.0494 27.0572 83.5997 26.7415C82.449 25.9337 81.643 25.3759 81.4697 25.2675C81.3881 25.2165 81.2027 25.0868 81.0577 24.9792C80.8104 24.7958 80.4925 24.5738 78.1102 22.9218C77.5936 22.5635 77.0896 22.2087 76.9904 22.1333C76.8911 22.058 76.4648 21.7617 76.043 21.4749C75.6213 21.1881 74.8441 20.6507 74.316 20.2807C73.7879 19.9107 72.7015 19.1538 71.9018 18.5987C70.0102 17.2858 69.5429 16.9594 69.0355 16.5964C68.8049 16.4315 68.5935 16.2966 68.5658 16.2967C68.5382 16.2968 68.4023 16.3798 68.2639 16.4812C68.1255 16.5826 67.7254 16.8648 67.3749 17.1082C66.266 17.8784 63.9799 19.4587 63.2485 19.9607C62.861 20.2266 62.4081 20.5448 62.242 20.6676C62.076 20.7905 61.7212 21.0404 61.4537 21.2228C61.1861 21.4053 60.3407 21.988 59.575 22.5178C58.8092 23.0476 57.8129 23.7363 57.3608 24.0482C56.9087 24.3601 56.4579 24.677 56.359 24.7523C56.26 24.8277 55.8335 25.124 55.4111 25.4107C54.9887 25.6975 54.262 26.1982 53.7962 26.5233C53.3304 26.8485 52.4209 27.4817 51.7751 27.9305C51.1293 28.3794 50.4877 28.8294 50.3493 28.9307C50.2109 29.032 49.9995 29.1738 49.8796 29.2459C49.7597 29.3181 49.4502 29.5275 49.1919 29.7114C48.6348 30.1079 47.5321 30.8757 46.1222 31.8487C45.5595 32.2371 44.9384 32.6731 44.7421 32.8177C44.5459 32.9623 44.3722 33.0811 44.3563 33.0817C44.3404 33.0823 43.9994 33.3131 43.5985 33.5947C42.5432 34.3358 41.664 34.9475 40.0333 36.0752C37.965 37.5055 37.1451 38.076 36.8965 38.2576C36.7766 38.3452 36.3237 38.6596 35.8901 38.9563C34.9766 39.5812 32.2993 41.4384 30.7675 42.5096C30.524 42.6799 30.2362 42.8751 30.1278 42.9435C30.0195 43.0118 29.8111 43.1545 29.6647 43.2606C29.5183 43.3667 29.0363 43.7052 28.5934 44.0127C26.5838 45.4086 25.4055 46.2306 25.1806 46.3936C25.0465 46.4908 24.8386 46.6299 24.7186 46.7026C24.5987 46.7753 24.2968 46.9798 24.0477 47.1571C23.5778 47.4915 22.692 48.1087 20.7432 49.4597C20.1159 49.8946 19.5172 50.3154 19.4128 50.3949C19.3085 50.4744 19.2103 50.5398 19.1948 50.5403C19.1792 50.5407 18.8343 50.7744 18.4284 51.0596C17.2832 51.8641 15.2165 53.2982 12.7546 54.9967C12.2987 55.3113 11.9094 55.5845 11.8894 55.6038C11.8218 55.6691 11.1953 56.0977 11.1853 56.0854C11.1798 56.0787 10.8988 55.7175 10.5608 55.2827C10.2228 54.8479 9.90691 54.4511 9.85884 54.4011C9.81076 54.3509 9.68875 54.1953 9.5877 54.0552C9.40946 53.808 9.02349 53.3095 7.94466 51.9329C5.97928 49.4251 5.92584 49.3529 5.98961 49.2918C6.02239 49.2604 6.73609 48.7534 7.57563 48.1652C8.41517 47.577 9.26598 46.9737 9.46636 46.8245C9.66671 46.6753 10.1075 46.364 10.4458 46.1327C10.7841 45.9014 11.4806 45.4135 11.9937 45.0484C12.5067 44.6833 13.3719 44.0716 13.9162 43.689C14.4605 43.3063 15.0501 42.8853 15.2265 42.7533C15.4028 42.6213 15.6187 42.4687 15.7061 42.414C15.7936 42.3593 16.1475 42.1144 16.4926 41.8697C18.204 40.656 20.7921 38.8314 21.9213 38.0424C22.2655 37.8019 22.7074 37.486 22.9032 37.3404C23.0991 37.1948 23.4782 36.9236 23.7457 36.7377C24.0133 36.5518 24.7832 36.0113 25.4567 35.5367C26.1302 35.062 27.0888 34.3874 27.587 34.0374C28.0852 33.6875 28.5909 33.3264 28.7108 33.235C28.8308 33.1436 29.2082 32.8801 29.5495 32.6495C29.8909 32.4188 30.3362 32.1063 30.5392 31.955C30.7422 31.8037 31.6706 31.1449 32.6024 30.491C33.5342 29.8371 34.4472 29.1893 34.6314 29.0514C34.8155 28.9136 34.9967 28.788 35.034 28.7723C35.0712 28.7567 35.4188 28.5163 35.8062 28.2383C36.7073 27.5917 37.5871 26.9685 39.2247 25.8171C40.7246 24.7625 42.1647 23.7415 42.5326 23.472C42.671 23.3707 43.0107 23.1349 43.2874 22.9481C43.5642 22.7614 43.8737 22.5453 43.9752 22.468C44.1512 22.3339 45.0563 21.6942 46.9274 20.3817C47.3979 20.0516 47.9489 19.6586 48.1519 19.5082C48.3549 19.3578 48.7398 19.0883 49.0074 18.9092C49.2749 18.7301 49.6146 18.4941 49.7622 18.3847C49.9098 18.2753 50.7175 17.702 51.557 17.1107C52.3965 16.5194 53.3233 15.863 53.6164 15.652C53.9095 15.441 54.1959 15.2404 54.2527 15.2062C54.3867 15.1254 55.8292 14.1042 55.8511 14.0745C55.8604 14.062 56.1246 13.8726 56.4382 13.6535C57.5111 12.904 59.8848 11.2322 60.7954 10.5847C61.2958 10.2289 61.9058 9.79742 62.1508 9.62596C63.1558 8.92269 63.4983 8.68157 64.2936 8.11763C64.7521 7.79257 65.6598 7.14922 66.3109 6.68795C66.9619 6.22672 67.5809 5.78469 67.6863 5.70571C67.7918 5.62672 67.9309 5.53344 67.9955 5.49835C68.0601 5.4633 68.2412 5.3425 68.398 5.22988C68.5548 5.11729 68.6949 5.02515 68.7094 5.02515C68.724 5.02515 68.8826 5.12731 69.0618 5.25221Z" fill="#ED4C5C"/>
<path fill-rule="evenodd" clip-rule="evenodd" d="M67.5903 0.745843C66.9922 1.16523 66.4424 1.55713 66.3686 1.61674C66.2948 1.67635 65.9551 1.91926 65.6138 2.15652C64.8552 2.68375 62.8982 4.06254 61.3926 5.13053C60.7777 5.5667 60.0455 6.08034 59.7655 6.27195C59.4855 6.46356 59.0224 6.79108 58.7364 6.99968C58.4504 7.20831 57.5824 7.82421 56.8074 8.36833C54.4762 10.0052 54.286 10.1392 53.5365 10.6733C52.6543 11.3019 51.183 12.3402 48.9236 13.9283C47.9826 14.5897 47.0789 15.2315 46.9155 15.3545C46.7519 15.4775 46.342 15.7673 46.0043 15.9986C45.6667 16.2299 45.1891 16.5643 44.9429 16.7419C44.6967 16.9194 43.8386 17.5261 43.036 18.09C40.9424 19.561 40.6075 19.797 39.9328 20.2768C38.2805 21.4518 36.4709 22.7281 34.4812 24.1216C34.0107 24.4512 33.5654 24.7691 33.4916 24.828C33.4178 24.8869 33.1007 25.1149 32.7871 25.3345C32.4734 25.5541 31.6657 26.1214 30.9922 26.5951C30.3188 27.0688 29.3073 27.7804 28.7445 28.1762C28.1818 28.5721 27.6081 28.9816 27.4697 29.0861C27.3313 29.1907 27.0218 29.407 26.782 29.5667C26.5421 29.7265 26.2251 29.9464 26.0775 30.0556C25.7985 30.2619 24.226 31.3724 21.4982 33.2895C20.6217 33.9055 19.8971 34.42 19.8879 34.4328C19.8786 34.4457 19.5616 34.6733 19.1834 34.9387C16.6791 36.6958 14.1382 38.4897 13.7821 38.752C13.6253 38.8676 13.2987 39.0974 13.0563 39.2626C12.8139 39.4279 12.1874 39.8673 11.6641 40.2391C11.1407 40.6109 10.5313 41.0412 10.3099 41.1954C10.0885 41.3495 9.45006 41.8022 8.89112 42.2013C8.33218 42.6005 7.80326 42.9725 7.71576 43.028C7.49119 43.1704 6.6795 43.7413 6.51901 43.8696C6.4452 43.9287 5.8036 44.3852 5.09322 44.8842C0.628521 48.0202 0.255669 48.2848 0.0759526 48.444L0 48.5112L1.48148 50.4158C3.91813 53.5484 5.61516 55.723 5.90193 56.0802C6.05048 56.2652 6.25317 56.5301 6.35238 56.6688C6.45154 56.8076 6.62398 57.0347 6.73556 57.1734C6.93621 57.423 9.17631 60.2938 9.91832 61.2522C10.1296 61.5251 10.317 61.7484 10.3348 61.7484C10.3526 61.7484 11.0487 61.2767 11.8817 60.7002C12.7147 60.1237 13.736 59.4173 14.1512 59.1305C14.5663 58.8436 14.9135 58.5992 14.9228 58.5873C14.932 58.5754 15.2037 58.3835 15.5266 58.1608C15.8495 57.9382 16.7704 57.3021 17.5731 56.7473C18.3757 56.1924 19.3532 55.5173 19.7453 55.247L20.4582 54.7555V84.0535V113.352H16.0131H11.568V119.676V126H68.6331H125.698V119.676V113.352H121.186H116.674V84.1187C116.674 68.0407 116.681 54.8859 116.689 54.8859C116.698 54.8859 116.868 55.0023 117.067 55.1445C117.266 55.2867 117.602 55.5163 117.814 55.6547C118.027 55.7931 118.283 55.9694 118.385 56.0465C118.486 56.1236 119.067 56.5322 119.676 56.9545C120.285 57.3768 121.24 58.0416 121.798 58.4318C122.357 58.822 123.113 59.3457 123.48 59.5955C123.846 59.8453 124.25 60.1269 124.377 60.2213C124.742 60.4928 126.794 61.9166 126.82 61.9166C126.83 61.9166 127.696 60.783 129.229 58.7634C129.63 58.2351 130.046 57.6953 130.154 57.5638C130.262 57.4324 130.543 57.0675 130.778 56.7529C131.013 56.4384 131.33 56.0221 131.482 55.8279C131.634 55.6336 132.103 55.0205 132.525 54.4655C134.002 52.5236 135.143 51.0284 135.677 50.3337C136.733 48.9605 136.856 48.7983 137.113 48.4457C137.256 48.2495 137.373 48.0772 137.373 48.063C137.373 48.0377 136.653 47.5204 135.573 46.7689C135.275 46.5616 134.588 46.0807 134.046 45.7003C133.505 45.3199 132.413 44.5565 131.619 44.0039C130.826 43.4513 129.935 42.8285 129.64 42.6198C128.363 41.7171 126.117 40.1456 124.524 39.0405C124.035 38.7011 123.537 38.3518 123.417 38.2641C123.148 38.0674 122.432 37.5652 120.649 36.3219C119.437 35.477 117.924 34.4181 116.986 33.7585L116.677 33.5416L116.676 22.2808L116.674 11.0199H107.482H98.2895V15.8485V20.677L98.0966 20.5409C97.9905 20.466 97.7487 20.2951 97.5593 20.1612C97.3699 20.0272 97.0985 19.8419 96.9563 19.7494C96.814 19.6569 96.5312 19.4592 96.3278 19.3101C96.1244 19.1609 95.5805 18.7761 95.1192 18.4549C93.0939 17.0447 91.4898 15.925 90.9928 15.5745C89.8161 14.7449 88.5812 13.8792 87.3193 12.9996C86.0116 12.0879 85.3093 11.5958 83.8303 10.5545C83.4151 10.2622 82.449 9.58652 81.6832 9.05297C79.015 7.19381 78.7463 7.0056 78.5172 6.83514C78.3905 6.74082 77.9875 6.45926 77.6217 6.20948C77.256 5.95971 76.5067 5.43863 75.9568 5.05157C75.4068 4.66448 74.3681 3.93686 73.6485 3.43465C71.5364 1.9606 71.199 1.72398 70.5453 1.25888C69.7425 0.687646 68.7778 0.0217175 68.7217 0.000188125C68.6976 -0.0090964 68.1885 0.326458 67.5903 0.745843ZM69.062 5.2928C69.2412 5.41771 69.4284 5.54076 69.4778 5.56633C69.5272 5.59189 69.6725 5.69284 69.8006 5.79074C70.0122 5.95237 71.0848 6.70536 72.9775 8.02084C73.365 8.29016 73.8255 8.61686 74.0007 8.74681C74.176 8.8768 74.5686 9.14857 74.873 9.35075C75.1774 9.55292 75.5398 9.8039 75.6781 9.90849C75.8165 10.0131 76.3072 10.3615 76.7685 10.6828C79.6777 12.7091 80.4638 13.2587 82.3784 14.6052C82.854 14.9398 83.8622 15.6449 84.6187 16.1722C86.3613 17.3869 87.2255 17.9935 88.0909 18.6095C88.4691 18.8788 88.8091 19.1113 88.8464 19.1261C88.8837 19.141 89.0648 19.2655 89.249 19.4027C89.4331 19.54 90.0593 19.9833 90.6405 20.3879C92.6406 21.7802 93.2076 22.1782 93.4418 22.3543C93.571 22.4514 93.9182 22.6911 94.2134 22.8868C94.5086 23.0826 94.886 23.3437 95.0521 23.4671C95.2182 23.5905 95.8069 24.0068 96.3605 24.3922C98.2591 25.7141 99.2456 26.4062 99.2624 26.428C99.2716 26.4401 99.5056 26.6012 99.7824 26.7859C100.059 26.9707 100.437 27.2304 100.621 27.3629C101.087 27.6977 102.355 28.5875 103.959 29.7065C105.554 30.8187 106.45 31.4479 107.465 32.1666C107.871 32.4542 108.233 32.7017 108.271 32.7165C108.308 32.7313 108.413 32.8028 108.505 32.8752C108.655 32.9933 109.812 33.8054 111.675 35.1009C112.035 35.3511 112.472 35.6618 112.647 35.7915C112.821 35.9211 113.259 36.2256 113.62 36.468C113.98 36.7104 114.366 36.9776 114.476 37.0618C114.587 37.1459 115.131 37.5302 115.684 37.9157C116.238 38.3012 117.133 38.928 117.675 39.3085C118.216 39.6891 118.98 40.2199 119.373 40.4882C119.765 40.7565 120.198 41.0604 120.334 41.1637C120.471 41.2669 120.907 41.5763 121.303 41.8511C121.7 42.126 122.591 42.7466 123.283 43.23C123.975 43.7135 124.865 44.3332 125.262 44.6071C125.659 44.881 126.014 45.1321 126.05 45.1652C126.11 45.2182 127.442 46.1483 127.711 46.3247C127.768 46.3617 128.376 46.7867 129.063 47.2691C129.749 47.7515 130.579 48.3324 130.906 48.5599L131.5 48.9735L131.176 49.3984C130.997 49.632 130.413 50.3984 129.879 51.1015C129.344 51.8046 128.75 52.5766 128.559 52.8171C128.368 53.0576 128.144 53.3528 128.062 53.4731C127.98 53.5933 127.777 53.8658 127.61 54.0786C127.443 54.2914 126.996 54.8699 126.615 55.3643L125.923 56.2631L125.718 56.1153C125.5 55.9577 124.142 55.0077 122.515 53.8744C121.969 53.4939 121.352 53.0624 121.144 52.9157C120.937 52.769 120.611 52.5463 120.419 52.4208C120.228 52.2954 119.937 52.0933 119.773 51.9717C119.609 51.8501 119.09 51.4843 118.62 51.1588C117.242 50.2057 115.337 48.8824 114.577 48.3508C113.101 47.318 112.22 46.7043 110.971 45.8371C109.333 44.7007 108.236 43.9348 107.448 43.3781C107.107 43.137 106.759 42.8998 106.676 42.851C106.593 42.8023 106.39 42.6624 106.224 42.5402C105.941 42.3319 105.47 42.0036 103.137 40.3876C102.621 40.0297 102.19 39.7269 102.181 39.7148C102.16 39.6875 101.218 39.0395 100.933 38.8567C100.818 38.7827 100.607 38.636 100.465 38.5309C100.323 38.4257 99.8096 38.0636 99.3238 37.7263C98.838 37.389 97.9297 36.756 97.3054 36.3197C96.6811 35.8834 96.032 35.4324 95.8629 35.3177C95.0743 34.7826 94.7683 34.5705 94.5338 34.3965C94.3945 34.2931 93.9559 33.984 93.5592 33.7096C91.1444 32.039 89.6192 30.9775 88.0183 29.8534C87.6062 29.564 87.2218 29.2991 87.1643 29.2647C87.1067 29.2303 86.6387 28.9058 86.1243 28.5436C85.6098 28.1815 85.0154 27.7661 84.8032 27.6206C84.591 27.4751 84.0495 27.0978 83.5999 26.7821C82.4491 25.9742 81.6432 25.4165 81.4698 25.3081C81.3883 25.2571 81.2029 25.1274 81.0579 25.0198C80.8105 24.8364 80.4926 24.6144 78.1104 22.9624C77.5937 22.6041 77.0898 22.2493 76.9905 22.1739C76.8912 22.0986 76.4649 21.8023 76.0432 21.5155C75.6215 21.2287 74.8443 20.6913 74.3161 20.3213C73.788 19.9512 72.7016 19.1944 71.9019 18.6393C70.0104 17.3264 69.5431 16.9999 69.0357 16.637C68.805 16.472 68.5937 16.3371 68.566 16.3372C68.5383 16.3373 68.4024 16.4204 68.264 16.5218C68.1257 16.6232 67.7256 16.9054 67.375 17.1488C66.2662 17.9189 63.9801 19.4993 63.2486 20.0013C62.8611 20.2672 62.4082 20.5854 62.2422 20.7082C62.0761 20.8311 61.7213 21.081 61.4538 21.2634C61.1863 21.4459 60.3409 22.0286 59.5751 22.5584C58.8094 23.0882 57.813 23.7769 57.361 24.0888C56.9089 24.4007 56.4581 24.7176 56.3591 24.7929C56.2601 24.8682 55.8336 25.1645 55.4112 25.4513C54.9889 25.7381 54.2622 26.2388 53.7963 26.5639C53.3305 26.8891 52.421 27.5223 51.7752 27.9711C51.1294 28.4199 50.4878 28.87 50.3494 28.9713C50.211 29.0725 49.9997 29.2144 49.8798 29.2865C49.7598 29.3587 49.4503 29.5681 49.192 29.752C48.635 30.1485 47.5323 30.9163 46.1224 31.8893C45.5596 32.2777 44.9386 32.7137 44.7423 32.8583C44.546 33.0029 44.3724 33.1216 44.3565 33.1222C44.3406 33.1229 43.9996 33.3537 43.5987 33.6353C42.5433 34.3764 41.6642 34.9881 40.0334 36.1158C37.9652 37.5461 37.1452 38.1166 36.8967 38.2982C36.7768 38.3858 36.3239 38.7002 35.8903 38.9969C34.9768 39.6218 32.2994 41.479 30.7676 42.5502C30.5242 42.7205 30.2363 42.9157 30.128 42.9841C30.0196 43.0524 29.8112 43.1951 29.6649 43.3012C29.5185 43.4073 29.0364 43.7458 28.5936 44.0533C26.5839 45.4492 25.4056 46.2712 25.1808 46.4342C25.0466 46.5314 24.8387 46.6705 24.7188 46.7432C24.5988 46.8159 24.2969 47.0204 24.0478 47.1977C23.5779 47.5321 22.6922 48.1493 20.7433 49.5002C20.116 49.9351 19.5173 50.356 19.413 50.4355C19.3086 50.515 19.2105 50.5804 19.1949 50.5808C19.1793 50.5813 18.8345 50.8149 18.4285 51.1001C17.2834 51.9046 15.2167 53.3388 12.7548 55.0373C12.2989 55.3519 11.9095 55.625 11.8895 55.6444C11.8219 55.7097 11.1954 56.1383 11.1854 56.126C11.1799 56.1193 10.8989 55.758 10.5609 55.3233C10.2229 54.8885 9.90705 54.4917 9.85898 54.4416C9.8109 54.3915 9.68889 54.2359 9.58784 54.0958C9.4096 53.8486 9.02363 53.3501 7.9448 51.9735C5.97942 49.4657 5.92598 49.3935 5.98975 49.3324C6.02253 49.301 6.73623 48.794 7.57577 48.2058C8.41531 47.6176 9.26612 47.0142 9.4665 46.8651C9.66685 46.7159 10.1076 46.4046 10.4459 46.1733C10.7842 45.942 11.4808 45.4541 11.9938 45.089C12.5069 44.7239 13.372 44.1122 13.9163 43.7295C14.4607 43.3469 15.0503 42.9259 15.2266 42.7939C15.4029 42.6619 15.6188 42.5092 15.7063 42.4546C15.7937 42.3999 16.1476 42.155 16.4927 41.9103C18.2042 40.6966 20.7922 38.872 21.9214 38.083C22.2657 37.8425 22.7075 37.5265 22.9034 37.381C23.0992 37.2354 23.4783 36.9642 23.7459 36.7783C24.0134 36.5923 24.7834 36.0519 25.4568 35.5773C26.1303 35.1026 27.0889 34.428 27.5871 34.078C28.0853 33.7281 28.5911 33.367 28.711 33.2756C28.8309 33.1842 29.2083 32.9207 29.5497 32.69C29.891 32.4594 30.3364 32.1469 30.5394 31.9956C30.7423 31.8443 31.6708 31.1855 32.6026 30.5316C33.5343 29.8777 34.4474 29.2299 34.6315 29.092C34.8157 28.9542 34.9968 28.8286 35.0341 28.8129C35.0714 28.7972 35.4189 28.5569 35.8064 28.2789C36.7075 27.6323 37.5873 27.0091 39.2248 25.8577C40.7248 24.8031 42.1649 23.7821 42.5327 23.5126C42.6711 23.4112 43.0108 23.1755 43.2876 22.9887C43.5644 22.802 43.8738 22.5859 43.9753 22.5086C44.1513 22.3744 45.0564 21.7348 46.9275 20.4223C47.398 20.0922 47.9491 19.6992 48.152 19.5488C48.355 19.3984 48.74 19.1289 49.0075 18.9498C49.2751 18.7707 49.6147 18.5347 49.7623 18.4253C49.9099 18.3159 50.7176 17.7426 51.5572 17.1513C52.3967 16.56 53.3234 15.9036 53.6165 15.6926C53.9097 15.4816 54.196 15.281 54.2528 15.2468C54.3869 15.166 55.8293 14.1448 55.8513 14.1151C55.8605 14.1026 56.1247 13.9132 56.4384 13.6941C57.5113 12.9446 59.885 11.2727 60.7956 10.6253C61.296 10.2694 61.9059 9.83801 62.1509 9.66655C63.1559 8.96328 63.4984 8.72216 64.2937 8.15822C64.7522 7.83316 65.66 7.18981 66.311 6.72854C66.962 6.26731 67.581 5.82528 67.6865 5.7463C67.792 5.66731 67.9311 5.57403 67.9957 5.53894C68.0602 5.50389 68.2413 5.38309 68.3981 5.27047C68.5549 5.15787 68.6951 5.06574 68.7096 5.06574C68.7242 5.06574 68.8827 5.1679 69.062 5.2928ZM112.539 22.8863C112.544 27.1463 112.539 30.6318 112.529 30.6318C112.51 30.6318 111.162 29.6969 110.216 29.0276C109.297 28.3775 108.354 27.7163 106.962 26.7457C106.224 26.2312 105.176 25.4986 104.634 25.1177C102.939 23.9275 102.691 23.7549 102.552 23.6701L102.416 23.5876V19.3557V15.1238L107.473 15.1323L112.531 15.1408L112.539 22.8863ZM69.3895 21.9425C69.813 22.237 70.6049 22.7862 71.1492 23.163C71.6935 23.5397 72.32 23.9782 72.5414 24.1373C72.7628 24.2964 73.027 24.479 73.1285 24.5432C73.3084 24.657 73.6519 24.8965 74.4369 25.4556C74.6491 25.6068 75.185 25.9806 75.6278 26.2864C76.0707 26.5922 76.9915 27.2304 77.6742 27.7046C78.3569 28.1788 79.1118 28.7031 79.3516 28.8696C79.5915 29.0362 79.9236 29.2712 80.0897 29.3919C80.2558 29.5127 80.8294 29.9135 81.3645 30.2827C82.8966 31.3399 84.7035 32.5946 85.2896 33.0083C86.0347 33.5343 87.9377 34.8588 90.6229 36.7205C91.1391 37.0784 91.6797 37.4592 91.8243 37.5667C91.969 37.6743 92.3468 37.9366 92.6639 38.1497C92.981 38.3627 93.71 38.8663 94.284 39.2688C95.2221 39.9266 95.8853 40.3883 98.4037 42.1365C98.8168 42.4233 99.5224 42.9162 99.9718 43.2319C100.816 43.8249 102.531 45.016 104.11 46.1066C104.608 46.4506 105.106 46.8009 105.217 46.8851C105.328 46.9692 105.856 47.34 106.391 47.7089C107.831 48.7018 109.691 49.9926 110.429 50.5108C111.015 50.9221 112.035 51.6355 112.405 51.8925L112.547 51.9916L112.539 82.6631L112.531 113.335L97.9456 113.343L83.3606 113.352V92.0577V70.7638H68.4653H53.57V92.0577V113.352H39.0941H24.6181V82.6077V51.8638L25.5659 51.2033C26.0871 50.8399 26.7023 50.4099 26.9329 50.2477C27.1636 50.0854 28.0392 49.4781 28.8787 48.8982C29.7183 48.3183 30.8626 47.5247 31.4218 47.1347C31.9809 46.7447 32.7694 46.1985 33.1738 45.921C33.5784 45.6435 34.4192 45.0615 35.0424 44.6278C35.6655 44.194 36.7038 43.4738 37.3496 43.0273C38.5629 42.1884 39.4014 41.6057 40.587 40.7779C40.9652 40.5138 41.9616 39.8232 42.8011 39.2431C43.6407 38.6632 44.6597 37.9568 45.0656 37.6735C46.5736 36.6211 47.1118 36.2471 48.4875 35.2961C49.8676 34.342 51.208 33.4107 52.1442 32.7552C52.4026 32.5744 53.3084 31.9466 54.1571 31.3602C55.0059 30.7737 56.1274 29.9953 56.6493 29.6303C57.1713 29.2653 57.8886 28.7699 58.2433 28.5293C58.5981 28.2888 59.0693 27.9623 59.2904 27.8038C59.5116 27.6453 60.0624 27.2607 60.5145 26.9492C62.5212 25.5662 64.5313 24.1721 65.6676 23.3753C67.2396 22.2728 68.5519 21.3812 68.5842 21.3937C68.6036 21.4011 68.966 21.6481 69.3895 21.9425ZM55.8177 48.0403V61.1765H68.566H81.3142V48.0403V34.904H68.566H55.8177V48.0403ZM66.3968 40.4966C66.4089 41.2968 66.4287 42.856 66.4409 43.9615L66.4632 45.9715H63.2036H59.9441V42.5066V39.0417H63.1595H66.3748L66.3968 40.4966ZM77.1878 42.5066V45.9715H73.9053H70.6227L70.6009 44.7352C70.5889 44.0552 70.5709 42.5528 70.561 41.3965C70.551 40.2401 70.5356 39.2373 70.5269 39.1679L70.511 39.0417H73.8494H77.1878V42.5066ZM66.5229 50.6389C66.5248 50.9303 66.5437 52.482 66.5649 54.087L66.6034 57.0053H63.2738L59.9441 57.0052V53.5572V50.1091H63.2318H66.5195L66.5229 50.6389ZM77.1878 53.5572V57.0052H73.9725H70.7572L70.7352 55.584C70.7231 54.8023 70.7032 53.2507 70.691 52.1359L70.6688 50.1091H73.9283H77.1878V53.5572ZM79.2342 94.1097V113.318H68.4821H57.73V94.1097V74.9015H68.4821H79.2342V94.1097ZM62.3816 89.6221C60.5836 89.9478 59.2905 91.5783 59.3842 93.4014C59.4233 94.1613 59.672 94.8288 60.1582 95.4787C60.4344 95.8479 60.5289 95.9434 60.8667 96.1949C61.1972 96.4408 61.6426 96.6483 62.0744 96.7573C62.4104 96.8421 62.4961 96.8502 63.0306 96.8482C63.5775 96.8462 63.6444 96.8389 64.0084 96.7415C64.6509 96.5696 65.0742 96.3246 65.5533 95.8474C66.1291 95.274 66.4988 94.565 66.621 93.8001C66.6808 93.4261 66.6487 92.6864 66.5577 92.3377C66.4021 91.742 66.1555 91.2933 65.6916 90.7611C64.89 89.8417 63.6067 89.4001 62.3816 89.6221ZM121.572 119.676V121.862H68.6331H15.6944V119.676V117.489H68.6331H121.572V119.676Z" fill="black"/>
</svg>
