<svg width="12" height="11" viewBox="0 0 12 11" fill="none" xmlns="http://www.w3.org/2000/svg">
<path d="M6.02636 0.0527344C2.81469 0.0527344 0.210571 2.50308 0.210571 5.52508C0.210571 8.54709 2.81469 10.9974 6.02636 10.9974C9.23803 10.9974 11.8422 8.54709 11.8422 5.52508C11.8422 2.50308 9.23803 0.0527344 6.02636 0.0527344ZM6.44177 8.16354C6.44177 8.21728 6.39504 8.26126 6.33792 8.26126H5.7148C5.65768 8.26126 5.61095 8.21728 5.61095 8.16354V4.84104C5.61095 4.78729 5.65768 4.74332 5.7148 4.74332H6.33792C6.39504 4.74332 6.44177 4.78729 6.44177 4.84104V8.16354ZM6.02636 3.96155C5.8633 3.95842 5.70804 3.89527 5.5939 3.78566C5.47976 3.67604 5.41583 3.52869 5.41583 3.37523C5.41583 3.22177 5.47976 3.07442 5.5939 2.96481C5.70804 2.85519 5.8633 2.79204 6.02636 2.78891C6.18942 2.79204 6.34468 2.85519 6.45882 2.96481C6.57296 3.07442 6.63689 3.22177 6.63689 3.37523C6.63689 3.52869 6.57296 3.67604 6.45882 3.78566C6.34468 3.89527 6.18942 3.95842 6.02636 3.96155Z" fill="black"/>
</svg>
