<svg width="96" height="99" viewBox="0 0 96 99" fill="none" xmlns="http://www.w3.org/2000/svg">
<g clip-path="url(#clip0)">
<path d="M18.4548 47.3079C17.3309 49.1349 15.4171 50.1896 12.757 50.4378V52.0414L10.6129 52.2647V50.4786C7.72113 50.3245 5.67939 49.2185 4.56377 47.1773C0.666325 40.0769 10.3349 23.8426 10.7499 23.1569L11.7182 21.5449L12.6104 23.1997C16.7554 30.8925 21.8612 41.7663 18.4548 47.3079Z" fill="#24BC48"/>
<path d="M31.5828 50.3338C30.8967 51.4398 29.7638 52.1 28.1938 52.2804V55.5651L26.915 55.6929V53.9096C26.7689 53.9006 26.623 53.8924 26.4778 53.875V52.3142C24.7701 52.1857 23.5604 51.4917 22.8736 50.2474C20.5227 45.9515 25.966 36.6634 26.5884 35.6175L27.3694 34.3311L28.0818 35.6603C30.5875 40.3172 33.6854 46.9115 31.5828 50.3338Z" fill="#239942"/>
<path d="M94.2913 57.5457C94.2485 57.9144 94.197 58.283 94.1371 58.6517C93.9295 60.0232 93.653 61.3786 93.3216 62.7078C93.2276 63.1109 93.1245 63.5048 93.0042 63.8912C92.9184 64.2368 92.816 64.5687 92.7122 64.9115C92.2008 66.6177 91.5907 68.293 90.8849 69.9285L88.5596 69.8857L83.6088 69.7909L78.0223 69.688L59.7027 69.3424L54.108 69.2311L50.2976 69.1619L43.7767 65.0194L41.8457 63.7847L40.8587 63.1585L35.948 59.9L36.592 59.085L44.2949 49.4417L48.5831 43.4376L55.4477 37.4342L59.7358 35.7194L61.4526 36.5771L66.6004 42.5798L69.1748 46.8654L70.8908 49.4382L73.465 46.0083L76.8978 42.5778L79.472 41.7207L82.0463 42.5778L85.4783 47.7232L89.7665 52.009L92.3948 55.2163L94.2913 57.5457Z" fill="#0B6C96"/>
<path d="M46.3422 63.2652L30.6735 93.1265L29.67 95.0384C28.8117 94.6873 27.9706 94.3182 27.1469 93.9153C26.6662 93.6927 26.1861 93.452 25.7228 93.2039C25.5152 93.092 25.3077 92.989 25.1134 92.8777C12.6969 86.1623 3.61834 74.045 1.05302 59.7067L0.726562 57.5798C1.37049 57.4166 2.07389 57.2452 2.82018 57.0822C5.3922 56.5168 7.99322 56.0921 10.6116 55.8103V54.2523L12.7557 54.2093V55.6071C16.9949 55.2815 21.6967 55.3306 26.4766 56.1303V53.9184L28.1926 53.8845V56.4573C30.8055 56.9824 33.3625 57.7549 35.8291 58.7639C36.2924 58.0437 36.9876 56.9716 37.8715 55.6679L39.4934 57.1195C38.8668 58.0367 38.3003 58.8946 37.8114 59.6493C39.6907 60.5434 41.491 61.5947 43.1931 62.7917C43.6821 62.4461 44.1801 62.1053 44.6863 61.7797L46.3422 63.2652Z" fill="#239942"/>
<path d="M93.0041 63.8915C92.9183 64.237 92.8159 64.5689 92.7122 64.9117C91.8191 67.9038 90.6233 70.7973 89.1433 73.5473C88.9545 73.9164 88.7566 74.2765 88.5422 74.6366C88.3963 74.9132 88.2331 75.1765 88.0706 75.4427C86.5263 78.0429 84.7329 80.487 82.7158 82.7407C82.244 83.2723 81.7551 83.7955 81.257 84.3015C73.0624 92.6966 61.7616 98.0571 49.2338 98.5021C48.6591 98.5284 48.0835 98.5368 47.5088 98.5368C47.3705 98.5368 47.2259 98.5368 47.0883 98.5284C44.0619 98.51 41.0445 98.1967 38.0788 97.5932C37.6328 97.4992 37.1867 97.4046 36.7489 97.3022C36.4826 97.2421 36.217 97.173 35.9506 97.1045C32.9154 96.3421 29.9657 95.2732 27.1467 93.9144C26.666 93.692 26.186 93.4513 25.7227 93.2032L26.1259 90.9816L27.1294 85.4593L31.4176 77.741L33.9912 73.4553L40.8558 65.737L42.3921 64.8626L44.4172 63.7048L46.8655 62.3078L52.0142 58.8772L59.7364 57.1622L65.7434 56.3044L76.8984 57.1622L85.4789 59.735L90.6276 62.3078L91.1256 62.6424L93.0041 63.8915Z" fill="#24BC48"/>
<path d="M88.5424 74.6368C88.3964 74.9134 88.2332 75.1767 88.0707 75.4429C86.5264 78.0431 84.733 80.4872 82.7159 82.7409C82.2441 83.2724 81.7552 83.7958 81.2573 84.3018C73.0626 92.6968 61.7617 98.0573 49.2339 98.5025C48.6592 98.5287 48.0836 98.537 47.5089 98.537C47.3706 98.537 47.226 98.537 47.0884 98.5287C44.062 98.5102 41.0446 98.197 38.0791 97.5935C37.6329 97.4994 37.1868 97.4047 36.749 97.3024L37.4269 95.75L37.5298 95.2785L39.1428 88.0316L42.5754 79.4561L49.44 73.4536L53.7283 70.8808L60.5929 68.308L68.3178 66.5936L74.3241 67.4509L81.1887 69.1664L85.4769 72.5963L86.7559 73.4452L88.5424 74.6368Z" fill="#239942"/>
<path d="M48.5815 97.4647L49.4398 91.462L53.7302 84.6016L60.5948 79.456L69.1753 77.7411L76.0399 80.3139L79.4727 82.0288L81.1886 82.8865L76.0399 88.0315L67.4594 93.1769L58.0205 96.6076L51.1559 97.4647H48.5815Z" fill="#24BC48"/>
<path d="M78.305 15.6712C78.2968 15.6623 78.2885 15.654 78.2885 15.6449C77.6535 15.1051 77.0013 14.5729 76.3401 14.0551H76.3318C76.2695 13.9969 76.2035 13.9424 76.1347 13.892C76.0399 13.8229 75.9458 13.7538 75.8511 13.6777C75.6437 13.5664 75.4306 13.4704 75.2079 13.3777C74.3997 13.0434 73.5414 12.8463 72.6682 12.7943C72.5049 12.786 72.3417 12.777 72.1784 12.777C71.7414 12.7751 71.305 12.8126 70.8747 12.889C72.2128 13.7009 73.5074 14.5825 74.7528 15.5302C75.5122 15.9075 76.18 16.4462 76.7094 17.1083C76.9585 17.3226 77.1984 17.5286 77.4385 17.7512C78.3652 18.5662 79.2492 19.4233 80.1075 20.3156C87.8132 28.4031 92.5572 39.3446 92.5572 51.3679C92.5572 52.1393 92.54 52.9115 92.497 53.6829V53.6918C92.4714 54.2061 92.4375 54.7121 92.3946 55.2181C92.3518 55.6812 92.3082 56.1444 92.2562 56.6006C92.0649 58.2296 91.7841 59.8471 91.4153 61.4454C91.3295 61.8484 91.2264 62.2431 91.1241 62.6378C91.0376 62.9717 90.9435 63.3063 90.8475 63.6325C90.2497 65.7736 89.4851 67.8646 88.5601 69.8861C88.2143 70.6748 87.8395 71.4469 87.4362 72.2018C87.2129 72.6212 86.9901 73.0415 86.7585 73.4459C86.638 73.6609 86.5177 73.8752 86.3891 74.0894C84.8679 76.6885 83.0885 79.1277 81.0779 81.3702C80.6056 81.9018 80.1096 82.425 79.6019 82.9394C71.8189 90.8373 61.1528 95.889 49.3202 96.3493C48.7199 96.3831 48.1188 96.3921 47.5094 96.3921C47.3981 96.3921 47.2867 96.3921 47.1746 96.3831C44.1609 96.3701 41.1565 96.0488 38.2082 95.4244C37.9847 95.3816 37.7531 95.3297 37.5303 95.2785C37.0462 95.1672 36.578 95.0553 36.1056 94.9268C34.2585 94.443 32.4441 93.8416 30.674 93.126C29.5847 92.6885 28.503 92.1997 27.4565 91.6745C27.0104 91.4519 26.5642 91.2203 26.1265 90.9832C25.8948 90.8636 25.6714 90.7434 25.4486 90.6147C13.9161 84.1172 5.51533 72.6829 3.14713 59.2017C3.01849 58.4987 2.91542 57.7957 2.82067 57.0837C2.07438 57.2469 1.36821 57.4183 0.727051 57.5815L1.05351 59.7084C3.61883 74.0467 12.6974 86.1639 25.1139 92.8785C25.311 92.9898 25.5171 93.0929 25.7233 93.2049C26.1866 93.453 26.6666 93.6935 27.1473 93.9161C27.9711 94.3191 28.8122 94.6882 29.6705 95.0394C31.7117 95.8784 33.8107 96.5691 35.9513 97.1062C36.2176 97.1753 36.4832 97.2444 36.7495 97.3039C37.1873 97.4061 37.6334 97.5008 38.0794 97.5949C41.0449 98.1979 44.0621 98.5107 47.0882 98.5288C47.2265 98.537 47.3718 98.537 47.5087 98.537C48.0835 98.537 48.659 98.5288 49.2337 98.5025C61.7616 98.0566 73.0623 92.6961 81.2571 84.3018C81.755 83.7958 82.244 83.2725 82.7157 82.741C84.733 80.4868 86.5262 78.0423 88.0705 75.4415C88.2331 75.1755 88.3962 74.9099 88.5422 74.6355C88.7566 74.2754 88.9571 73.9153 89.1432 73.5462C89.7781 72.3711 90.3613 71.1621 90.8848 69.9275C91.5897 68.2924 92.1993 66.6177 92.7101 64.9119C92.8138 64.5663 92.9175 64.2345 93.0019 63.8917C93.1223 63.5054 93.2254 63.1113 93.3194 62.7084C93.6542 61.3791 93.9287 60.0236 94.1349 58.6521C94.1947 58.2835 94.2462 57.9148 94.289 57.5461C94.3748 56.9891 94.435 56.4312 94.4869 55.8658C94.6321 54.3818 94.7013 52.8935 94.7013 51.3727C94.7034 37.1181 88.3451 24.3151 78.305 15.6712Z" fill="#131414"/>
<path d="M77.5333 18.6033C77.5198 18.3186 77.4882 18.0351 77.4386 17.7544C77.2339 16.4378 76.6966 15.1953 75.8776 14.1441C75.8339 14.084 75.7827 14.0156 75.7316 13.9554C75.7225 13.9471 75.7143 13.9381 75.7143 13.9298C75.551 13.7411 75.3878 13.5524 75.208 13.381C74.6666 12.8408 74.0477 12.3842 73.3716 12.0262C73.3672 12.0211 73.361 12.0179 73.3544 12.0172C73.3371 11.9916 73.3032 11.9833 73.2769 11.966C72.1436 11.3739 70.8832 11.0655 69.6042 11.0674C69.1673 11.0656 68.7309 11.1029 68.3004 11.1787C66.8073 11.4275 65.4164 12.0981 64.2919 13.1111C63.1675 14.1241 62.3565 15.4375 61.9546 16.8961C61.5526 18.3548 61.5764 19.898 62.0234 21.3435C62.4704 22.789 63.3216 24.0766 64.477 25.0545C65.6322 26.0322 67.0432 26.6593 68.5434 26.8618C70.0438 27.0643 71.5707 26.8337 72.9441 26.1973C74.3175 25.5607 75.4801 24.545 76.2947 23.2698C77.1093 21.9945 77.542 20.513 77.5416 19C77.5416 18.8693 77.5416 18.7409 77.5333 18.6033ZM69.6042 24.7863C68.0682 24.7863 66.595 24.1765 65.5087 23.091C64.4226 22.0054 63.8124 20.5332 63.8124 18.998C63.8124 17.4628 64.4226 15.9904 65.5087 14.905C66.595 13.8194 68.0682 13.2096 69.6042 13.2096C70.4986 13.2054 71.3811 13.4142 72.1785 13.8186C72.9381 14.1955 73.6059 14.7338 74.1352 15.396C74.8144 16.2477 75.2394 17.2738 75.3609 18.3561C75.4825 19.4385 75.2958 20.5332 74.8224 21.5141C74.3491 22.4952 73.6083 23.3228 72.6851 23.9016C71.762 24.4805 70.694 24.7872 69.6042 24.7863Z" fill="#131414"/>
<path d="M44.9948 64.1485C44.3852 64.5688 43.7859 65.0065 43.1965 65.4619C42.6045 64.9987 41.9952 64.5633 41.3858 64.1485C32.2602 57.991 21.4919 57.0482 12.7557 57.7456C12.026 57.8058 11.3033 57.8749 10.6116 57.953C8.10281 58.2341 5.61092 58.6494 3.14663 59.1973C2.39966 59.3694 1.69418 59.5429 1.05302 59.704L0.726562 57.5798C1.37049 57.4166 2.07389 57.2452 2.82018 57.082C5.39221 56.5166 7.99323 56.0921 10.6116 55.8102C11.3067 55.7244 12.0274 55.6561 12.7557 55.6028C16.9949 55.2772 21.6967 55.3263 26.4766 56.126C26.7851 56.1772 27.0943 56.2373 27.4035 56.2974L28.1926 56.4524C30.8055 56.9776 33.3625 57.75 35.8291 58.7589C36.4903 59.0355 37.1591 59.3251 37.8114 59.6423C39.6909 60.5386 41.4912 61.5922 43.1931 62.7916C43.8024 63.2223 44.4027 63.6771 44.9948 64.1485Z" fill="#131414"/>
<path d="M94.4891 55.8647C94.4372 56.4302 94.3771 56.9879 94.2913 57.5451C94.2485 57.9138 94.197 58.2824 94.1371 58.6511C93.6308 58.0932 92.9875 57.3986 92.2578 56.6016C88.68 52.7169 83.0763 46.5421 80.7766 43.6756C80.2017 42.9552 79.6782 42.595 79.2147 42.595C78.683 42.595 78.0653 43.0327 77.4131 43.6845C76.7608 44.3363 76.0747 45.1934 75.3969 46.0423C74.616 47.0204 73.8178 48.0316 72.9339 48.9067C72.6081 49.2331 71.6199 50.2277 70.3685 50.039C68.901 49.8241 68.0944 48.3068 66.8758 46.0167C65.6744 43.7529 64.0185 40.6569 61.1267 37.7586C60.5603 37.2007 59.8998 36.9781 59.0518 37.0729C53.74 37.6811 44.5847 49.6271 39.4961 57.1138C38.8695 58.031 38.3031 58.8889 37.8141 59.6437C37.5824 60.0038 37.3679 60.3467 37.1708 60.6639L35.9521 59.9035L35.3518 59.5262C35.4542 59.3548 35.6175 59.0976 35.8318 58.7658C36.2953 58.0456 36.9904 56.9735 37.8743 55.6698C42.5166 48.8265 52.2046 35.6973 58.8112 34.9515C60.2961 34.7794 61.6262 35.2342 62.6388 36.2552C65.7705 39.3761 67.5037 42.6352 68.7736 45.0186C69.4087 46.2109 70.2842 47.8574 70.6875 47.926C70.6875 47.926 70.9018 47.9176 71.4255 47.4033C72.2147 46.6056 72.9781 45.6448 73.7161 44.7185C75.4585 42.5232 77.1053 40.4571 79.2078 40.4571H79.2161C80.3581 40.4571 81.4565 41.0916 82.46 42.3436C84.4167 44.796 88.9989 49.8641 92.4993 53.6887V53.6977C93.2192 54.4836 93.897 55.2129 94.4891 55.8647Z" fill="#131414"/>
<path d="M44.7789 59.0083L42.9487 57.8843C43.2344 57.4205 50.0036 46.4789 54.4655 43.8059L55.5721 45.6446C52.2335 47.6444 46.6464 55.9688 44.7789 59.0083Z" fill="#131414"/>
<path d="M51.4299 17.0751L51.4202 19.2192L60.0007 19.2581L60.0104 17.1139L51.4299 17.0751Z" fill="#131414"/>
<path d="M60.6068 21.7855L52.4412 24.4198L53.1003 26.4603L61.2659 23.826L60.6068 21.7855Z" fill="#131414"/>
<path d="M53.5012 9.12231L52.4614 10.9979L59.9668 15.154L61.0067 13.2785L53.5012 9.12231Z" fill="#131414"/>
<path d="M59.1465 3.8429L57.4819 5.19577L62.8959 11.8488L64.5603 10.4959L59.1465 3.8429Z" fill="#131414"/>
<path d="M67.5036 0.882935L65.3784 1.17764L66.5577 9.6717L68.6829 9.377L67.5036 0.882935Z" fill="#131414"/>
<path d="M73.0614 0.858398L70.9377 9.16703L73.0164 9.69772L75.1402 1.3891L73.0614 0.858398Z" fill="#131414"/>
<path d="M79.8498 3.75586L74.793 10.6839L76.5264 11.9475L81.5832 5.01952L79.8498 3.75586Z" fill="#131414"/>
<path d="M87.4356 72.2013C86.2206 71.3056 84.9416 70.4999 83.6087 69.791C79.088 67.3667 74.0551 66.0519 68.9255 65.9549C63.796 65.858 58.7171 66.982 54.1079 69.2338C44.3168 74.0275 37.2898 83.6233 36.105 94.9263C36.0282 95.6465 35.9763 96.3779 35.9507 97.1044C36.2171 97.1735 36.4826 97.2427 36.749 97.3021C37.1867 97.4043 37.6329 97.4991 38.0789 97.5931C38.0962 96.8645 38.1392 96.1415 38.2076 95.4239C39.3917 83.0233 48.0982 72.7931 59.7026 69.3451C64.2127 68.0017 68.9747 67.7308 73.6083 68.5544C78.2417 69.3777 82.6184 71.2727 86.3884 74.0876C86.9633 74.5163 87.5297 74.9711 88.0706 75.4425C88.2332 75.1764 88.3963 74.911 88.5422 74.6366C88.7567 74.2764 88.9573 73.9162 89.1434 73.5471C88.5941 73.0758 88.0187 72.6299 87.4356 72.2013Z" fill="#131414"/>
<path d="M81.0772 81.3687C77.4041 78.5925 72.9229 77.0935 68.3177 77.1002C57.2568 77.1002 48.1527 85.5907 47.174 96.3857C47.1084 97.0287 47.077 97.6748 47.0799 98.3211C47.0786 98.3903 47.0813 98.4596 47.0882 98.5286C47.2265 98.5368 47.3718 98.5368 47.5087 98.5368C48.0835 98.5368 48.659 98.5286 49.2337 98.5023C49.2268 98.4426 49.224 98.3826 49.2255 98.3225C49.2255 97.6535 49.2593 96.9932 49.3195 96.3505C50.312 86.754 58.4582 79.2431 68.3177 79.2431C72.3775 79.2379 76.3321 80.5332 79.6012 82.9391C80.1798 83.3603 80.7328 83.8158 81.257 84.3029C81.755 83.797 82.244 83.2737 82.7157 82.7421C82.1936 82.2564 81.6467 81.7979 81.0772 81.3687Z" fill="#131414"/>
<path d="M91.4168 61.4473C84.4048 57.0485 76.2814 54.743 68.0027 54.8023C59.7239 54.8616 51.6345 57.283 44.6862 61.7819C44.18 62.1075 43.682 62.4504 43.193 62.7939C42.7379 63.1194 42.2835 63.454 41.8456 63.7886L41.3822 64.1487C33.1876 70.6145 27.3702 79.9447 25.4481 90.6133C25.3194 91.3588 25.2079 92.1134 25.1133 92.8771C25.3104 92.9884 25.5165 93.0913 25.7227 93.2033C26.186 93.4515 26.6661 93.692 27.1468 93.9145C27.2241 93.1688 27.3272 92.4139 27.4559 91.6763C29.1719 81.0314 34.9728 71.7467 43.193 65.4606C43.3901 65.3148 43.5789 65.169 43.7767 65.0232C44.18 64.7231 44.5832 64.4314 44.9947 64.1487C45.4415 63.8487 45.8877 63.5486 46.3421 63.2652C53.0221 59.074 60.7631 56.8814 68.6502 56.9468C76.5373 57.0121 84.2408 59.3328 90.8503 63.6343C91.4852 64.0374 92.1036 64.4639 92.7122 64.9119C92.8159 64.5661 92.9197 64.2344 93.0041 63.8916C93.1244 63.5051 93.2275 63.1111 93.3216 62.7082C92.6956 62.2705 92.069 61.8504 91.4168 61.4473Z" fill="#131414"/>
<path d="M12.7557 42.5808V57.7458C12.026 57.8059 11.3032 57.8751 10.6116 57.9532V42.5808H12.7557Z" fill="#131414"/>
<path d="M12.611 23.1997L11.7181 21.5449L10.7498 23.1569C10.3348 23.8426 0.666937 40.0769 4.56299 47.1773C5.67862 49.2185 7.72036 50.3245 10.6121 50.4786C10.7325 50.4876 10.8528 50.4959 10.9815 50.4959C11.1274 50.5048 11.2644 50.5048 11.402 50.5048C11.8549 50.5088 12.3075 50.4857 12.7576 50.4358C15.4177 50.1876 17.3315 49.1328 18.4554 47.3058C21.8611 41.7663 16.7554 30.8925 12.611 23.1997ZM16.6288 46.1826C15.8909 47.3743 14.623 48.0779 12.7556 48.2833C12.1829 48.3467 11.6065 48.3698 11.0306 48.3523C10.8847 48.3523 10.7477 48.3434 10.6101 48.3351C8.54273 48.1969 7.17812 47.4863 6.44842 46.148C3.99446 41.6806 8.71427 31.2436 11.6316 25.9267C16.9269 36.1492 18.6089 42.958 16.6288 46.1826Z" fill="#131414"/>
<path d="M28.1938 47.3838H26.4778V57.1599H28.1938V47.3838Z" fill="#131414"/>
<path d="M28.0824 35.6603L27.3701 34.3311L26.5884 35.6175C25.966 36.6634 20.5227 45.9515 22.8736 50.2474C23.5604 51.4917 24.7701 52.183 26.4778 52.3142C26.6194 52.3389 26.7629 52.3504 26.9066 52.3488H27.1639C27.5084 52.3523 27.8528 52.3292 28.1938 52.2797C29.7638 52.0993 30.8967 51.4391 31.5828 50.3331C33.6854 46.9115 30.5875 40.3172 28.0824 35.6603ZM30.1158 49.4331C29.7382 50.0332 29.1116 50.4195 28.1938 50.5654C27.7821 50.6291 27.3651 50.6522 26.9488 50.6346C26.7856 50.6256 26.6223 50.6172 26.4771 50.6083C25.4473 50.497 24.7605 50.103 24.3827 49.4249C22.9994 46.9213 25.5586 41.0983 27.3008 37.8564C30.2957 43.714 31.2487 47.598 30.1158 49.4331Z" fill="#131414"/>
<path d="M76.3428 14.0599C76.3428 14.0599 74.205 12.3623 73.4062 12.0353C72.6072 11.7084 72.6079 13.424 72.6079 13.424L75.1823 14.2818L76.3428 14.0599Z" fill="#131414"/>
<path d="M69.6042 25.4302C73.1586 25.4302 76.04 22.5504 76.04 18.9982C76.04 15.446 73.1586 12.5663 69.6042 12.5663C66.0498 12.5663 63.1685 15.446 63.1685 18.9982C63.1685 22.5504 66.0498 25.4302 69.6042 25.4302Z" fill="#E07103"/>
</g>
<defs>
<clipPath id="clip0">
<rect width="94.984" height="97.6786" fill="white" transform="translate(0.37915 0.858398)"/>
</clipPath>
</defs>
</svg>
