<svg width="172" height="23" viewBox="0 0 172 23" fill="none" xmlns="http://www.w3.org/2000/svg">
<path d="M5.02094 18.6581H12.3304C12.7362 18.6581 12.9254 18.8557 12.9254 19.1842V22.4688C12.9254 22.8258 12.741 22.9948 12.3304 22.9948H0.595039C0.226115 22.9948 0 22.8305 0 22.4688V0.532062C0 0.203601 0.221355 0.00604248 0.595039 0.00604248H4.43066C4.83648 0.00604248 5.0257 0.203601 5.0257 0.532062L5.02094 18.6581Z" fill="#131414"/>
<path d="M29.7187 22.9947C29.5795 23.0079 29.4405 22.9677 29.33 22.8821C29.2195 22.7966 29.1457 22.6722 29.1236 22.5341L27.9419 18.395H21.0061L19.8612 22.5341C19.8392 22.6722 19.7654 22.7966 19.6548 22.8821C19.5443 22.9677 19.4053 23.0079 19.2662 22.9947H15.6484C15.2426 22.9947 15.0533 22.7971 15.1723 22.4354L21.3024 0.46056C21.3762 0.132098 21.5976 0 21.9308 0H27.0612C27.3944 0 27.6158 0.132098 27.6896 0.46056L33.8173 22.4354C33.928 22.7924 33.7435 22.9947 33.3008 22.9947H29.7187ZM24.4764 5.6493L22.151 14.5844H26.8018L24.4764 5.6493Z" fill="#131414"/>
<path d="M51.979 0C52.348 0 52.5741 0.197544 52.5741 0.526005V22.4687C52.5741 22.7971 52.3527 22.9947 51.979 22.9947H49.0622C48.7301 22.9947 48.5457 22.8626 48.3981 22.5674L41.4576 10.0193V22.4687C41.4576 22.7971 41.2731 22.9947 40.8625 22.9947H37.397C37.0281 22.9947 36.802 22.7971 36.802 22.4687V0.531961C36.802 0.2035 37.0245 0.00594167 37.397 0.00594167H40.3127C40.6459 0.00594167 40.8304 0.138051 40.978 0.43319L47.9185 12.9814V0.531961C47.9185 0.2035 48.103 0.00594167 48.5135 0.00594167L51.979 0Z" fill="#131414"/>
<path d="M56.2609 0.53133C56.2609 0.202868 56.4454 0.00531006 56.8559 0.00531006H65.7161C69.1863 0.00531006 71.0321 1.68094 71.0321 4.76562V18.2635C71.0321 21.3577 69.1863 22.9941 65.7161 22.9941H56.8512C56.4454 22.9941 56.2561 22.8298 56.2561 22.468L56.2609 0.53133ZM64.6783 18.6634C65.6375 18.6634 66.1552 18.2361 66.1552 17.3543V5.69151C66.1552 4.8049 65.6375 4.34554 64.6783 4.34554H61.2818V18.6669L64.6783 18.6634Z" fill="#131414"/>
<path d="M90.9993 0C94.4696 0 96.3154 1.6435 96.3154 4.73056V6.89888C96.3154 7.22734 96.1309 7.42371 95.7204 7.42371H91.993C91.6229 7.42371 91.398 7.22734 91.398 6.89888V5.51839C91.398 4.66511 90.922 4.20931 89.9211 4.20931H87.898C86.9757 4.20931 86.4211 4.66987 86.4211 5.51839V8.3115L95.355 10.8737C95.9834 11.0701 96.3154 11.4688 96.3154 12.0888V18.2641C96.3154 21.3583 94.4696 22.9947 90.9993 22.9947H86.865C83.4316 22.9947 81.5489 21.3524 81.5489 18.2641V16.1291C81.5489 15.7721 81.7703 15.6031 82.144 15.6031H85.8725C86.2783 15.6031 86.4675 15.7673 86.4675 16.1291V17.5084C86.4675 18.395 87.0221 18.8175 87.9444 18.8175H89.9378C90.8982 18.8175 91.4147 18.3903 91.4147 17.5084V14.1905L82.5545 11.6282C81.8905 11.4319 81.5584 11.0332 81.5584 10.4132V4.73056C81.5584 1.6435 83.4411 0 86.8745 0H90.9993Z" fill="#131414"/>
<path d="M109.753 0.53133C109.753 0.202868 109.975 0.00531006 110.348 0.00531006H114.15C114.593 0.00531006 114.777 0.202868 114.777 0.53133V22.474C114.777 22.8025 114.593 23 114.15 23H110.344C109.975 23 109.749 22.8025 109.749 22.474V13.7364H105.024V22.474C105.024 22.8025 104.803 23 104.429 23H100.634C100.192 23 100.007 22.8025 100.007 22.474V0.53133C100.007 0.202868 100.192 0.00531006 100.634 0.00531006H104.437C104.807 0.00531006 105.032 0.202868 105.032 0.53133V9.39979H109.756L109.753 0.53133Z" fill="#131414"/>
<path d="M131.571 22.9947C131.432 23.0079 131.293 22.9677 131.183 22.8821C131.072 22.7966 130.999 22.6722 130.976 22.5341L129.795 18.395H122.854L121.711 22.5341C121.688 22.672 121.614 22.7963 121.504 22.8818C121.393 22.9673 121.255 23.0076 121.115 22.9947H117.498C117.092 22.9947 116.903 22.7971 117.022 22.4354L123.149 0.46056C123.223 0.132098 123.444 0 123.778 0H128.909C129.241 0 129.463 0.132098 129.536 0.46056L135.669 22.4354C135.781 22.7924 135.595 22.9947 135.152 22.9947H131.571ZM126.335 5.65049L124.006 14.5856H128.657L126.335 5.65049Z" fill="#131414"/>
<path d="M153.057 11.3325C153.057 13.2366 152.356 14.585 150.99 15.3395L152.91 22.4026C153.02 22.7965 152.799 22.9976 152.393 22.9976H148.775C148.405 22.9976 148.221 22.8334 148.147 22.5371L146.38 16.063H143.094V22.468C143.094 22.7965 142.872 22.9941 142.499 22.9941H138.882C138.513 22.9941 138.287 22.7965 138.287 22.468V0.53133C138.287 0.202868 138.51 0.00531006 138.882 0.00531006H147.742C151.213 0.00531006 153.058 1.64881 153.058 4.73587L153.057 11.3325ZM146.781 11.8252C147.741 11.8252 148.258 11.3658 148.258 10.5161V5.55584C148.258 4.70136 147.741 4.24675 146.781 4.24675H143.091V11.8347L146.781 11.8252Z" fill="#131414"/>
<path d="M171.478 3.81C171.478 4.13846 171.331 4.36814 170.883 4.36814H161.765V9.42716H168.705C169.074 9.42716 169.3 9.62471 169.3 9.9853V13.2378C169.3 13.5948 169.079 13.7959 168.705 13.7959H161.765V18.6574H170.883C171.326 18.6574 171.478 18.8216 171.478 19.1834V22.468C171.478 22.7965 171.331 22.9941 170.883 22.9941H157.302C156.97 22.9941 156.749 22.7965 156.749 22.468V0.53133C156.749 0.202868 156.97 0.00531006 157.302 0.00531006H170.888C171.331 0.00531006 171.483 0.202868 171.483 0.53133L171.478 3.81Z" fill="#131414"/>
</svg>
