<svg width="271" height="71" viewBox="0 0 271 71" fill="none" xmlns="http://www.w3.org/2000/svg">
<path d="M94.27 43.67H101.17V47H90.07V26.06H94.27V43.67ZM116.68 43.01H108.34L106.96 47H102.55L110.08 26.03H114.97L122.5 47H118.06L116.68 43.01ZM115.54 39.65L112.51 30.89L109.48 39.65H115.54ZM143.224 47H139.024L129.514 32.63V47H125.314V26.03H129.514L139.024 40.43V26.03H143.224V47ZM154.695 26.06C156.895 26.06 158.825 26.49 160.485 27.35C162.165 28.21 163.455 29.44 164.355 31.04C165.275 32.62 165.735 34.46 165.735 36.56C165.735 38.66 165.275 40.5 164.355 42.08C163.455 43.64 162.165 44.85 160.485 45.71C158.825 46.57 156.895 47 154.695 47H147.375V26.06H154.695ZM154.545 43.43C156.745 43.43 158.445 42.83 159.645 41.63C160.845 40.43 161.445 38.74 161.445 36.56C161.445 34.38 160.845 32.68 159.645 31.46C158.445 30.22 156.745 29.6 154.545 29.6H151.575V43.43H154.545ZM183.257 47.21C181.797 47.21 180.477 46.96 179.297 46.46C178.137 45.96 177.217 45.24 176.537 44.3C175.857 43.36 175.507 42.25 175.487 40.97H179.987C180.047 41.83 180.347 42.51 180.887 43.01C181.447 43.51 182.207 43.76 183.167 43.76C184.147 43.76 184.917 43.53 185.477 43.07C186.037 42.59 186.317 41.97 186.317 41.21C186.317 40.59 186.127 40.08 185.747 39.68C185.367 39.28 184.887 38.97 184.307 38.75C183.747 38.51 182.967 38.25 181.967 37.97C180.607 37.57 179.497 37.18 178.637 36.8C177.797 36.4 177.067 35.81 176.447 35.03C175.847 34.23 175.547 33.17 175.547 31.85C175.547 30.61 175.857 29.53 176.477 28.61C177.097 27.69 177.967 26.99 179.087 26.51C180.207 26.01 181.487 25.76 182.927 25.76C185.087 25.76 186.837 26.29 188.177 27.35C189.537 28.39 190.287 29.85 190.427 31.73H185.807C185.767 31.01 185.457 30.42 184.877 29.96C184.317 29.48 183.567 29.24 182.627 29.24C181.807 29.24 181.147 29.45 180.647 29.87C180.167 30.29 179.927 30.9 179.927 31.7C179.927 32.26 180.107 32.73 180.467 33.11C180.847 33.47 181.307 33.77 181.847 34.01C182.407 34.23 183.187 34.49 184.187 34.79C185.547 35.19 186.657 35.59 187.517 35.99C188.377 36.39 189.117 36.99 189.737 37.79C190.357 38.59 190.667 39.64 190.667 40.94C190.667 42.06 190.377 43.1 189.797 44.06C189.217 45.02 188.367 45.79 187.247 46.37C186.127 46.93 184.797 47.21 183.257 47.21ZM211.678 26.06V47H207.478V38.09H198.508V47H194.308V26.06H198.508V34.67H207.478V26.06H211.678ZM228.652 43.01H220.312L218.932 47H214.522L222.052 26.03H226.942L234.472 47H230.032L228.652 43.01ZM227.512 39.65L224.482 30.89L221.452 39.65H227.512ZM248.087 47L243.467 38.84H241.487V47H237.287V26.06H245.147C246.767 26.06 248.147 26.35 249.287 26.93C250.427 27.49 251.277 28.26 251.837 29.24C252.417 30.2 252.707 31.28 252.707 32.48C252.707 33.86 252.307 35.11 251.507 36.23C250.707 37.33 249.517 38.09 247.937 38.51L252.947 47H248.087ZM241.487 35.69H244.997C246.137 35.69 246.987 35.42 247.547 34.88C248.107 34.32 248.387 33.55 248.387 32.57C248.387 31.61 248.107 30.87 247.547 30.35C246.987 29.81 246.137 29.54 244.997 29.54H241.487V35.69ZM260.706 29.45V34.7H267.756V38.03H260.706V43.58H268.656V47H256.506V26.03H268.656V29.45H260.706Z" fill="black"/>
<g clip-path="url(#clip0)">
<path d="M13.1308 33.7629C12.3143 35.0909 10.9241 35.8576 8.99169 36.038V37.2036L7.43412 37.3659V36.0676C5.33342 35.9556 3.85022 35.1517 3.03979 33.668C0.208539 28.5069 7.23214 16.7066 7.53361 16.2082L8.23702 15.0365L8.88517 16.2393C11.8963 21.831 15.6053 29.7349 13.1308 33.7629Z" fill="#24BC48"/>
<path d="M22.6676 35.9624C22.1692 36.7663 21.3462 37.2462 20.2057 37.3773V39.7649L19.2767 39.8578V38.5615C19.1706 38.555 19.0646 38.549 18.9591 38.5364V37.4019C17.7186 37.3085 16.8398 36.804 16.3409 35.8996C14.6331 32.777 18.5873 26.0257 19.0395 25.2655L19.6068 24.3304L20.1243 25.2966C21.9446 28.6816 24.195 33.4748 22.6676 35.9624Z" fill="#239942"/>
<path d="M68.2213 41.2045C68.1902 41.4725 68.1528 41.7404 68.1093 42.0084C67.9585 43.0053 67.7576 43.9905 67.5169 44.9567C67.4486 45.2497 67.3737 45.536 67.2863 45.8169C67.224 46.0681 67.1496 46.3093 67.0742 46.5585C66.7027 47.7987 66.2595 49.0164 65.7468 50.2052L64.0576 50.1741L60.4611 50.1052L56.4029 50.0304L43.0948 49.7792L39.0306 49.6983L36.2626 49.648L31.5256 46.6369L30.1228 45.7395L29.4058 45.2843L25.8385 42.9158L26.3063 42.3234L31.902 35.3139L35.0171 30.9497L40.0038 26.586L43.1189 25.3395L44.366 25.963L48.1056 30.3262L49.9757 33.4413L51.2223 35.3114L53.0923 32.8183L55.586 30.3247L57.456 29.7017L59.3261 30.3247L61.8192 34.0648L64.9343 37.18L66.8436 39.5113L68.2213 41.2045Z" fill="#0B6C96"/>
<path d="M33.3892 45.3619L22.0069 67.0673L21.2779 68.457C20.6544 68.2018 20.0434 67.9335 19.445 67.6406C19.0958 67.4788 18.7471 67.3039 18.4105 67.1235C18.2597 67.0422 18.109 66.9673 17.9678 66.8864C8.94804 62.0052 2.35302 53.1974 0.48947 42.7753L0.252319 41.2293C0.72009 41.1107 1.23107 40.9861 1.7732 40.8676C3.64162 40.4566 5.5311 40.1479 7.43319 39.9431V38.8106L8.99075 38.7794V39.7954C12.0702 39.5587 15.4858 39.5944 18.9581 40.1757V38.5679L20.2047 38.5433V40.4134C22.1028 40.7951 23.9603 41.3566 25.7521 42.09C26.0887 41.5665 26.5937 40.7872 27.2358 39.8396L28.414 40.8947C27.9588 41.5614 27.5473 42.185 27.1921 42.7336C28.5573 43.3835 29.8651 44.1476 31.1016 45.0177C31.4568 44.7665 31.8186 44.5188 32.1863 44.2821L33.3892 45.3619Z" fill="#239942"/>
<path d="M67.2863 45.8171C67.224 46.0683 67.1496 46.3095 67.0743 46.5587C66.4255 48.7336 65.5568 50.8368 64.4817 52.8357C64.3445 53.104 64.2008 53.3657 64.045 53.6275C63.939 53.8285 63.8205 54.0199 63.7024 54.2134C62.5806 56.1034 61.2778 57.88 59.8125 59.5181C59.4698 59.9045 59.1146 60.2848 58.7528 60.6526C52.7999 66.7548 44.5906 70.6512 35.4899 70.9747C35.0724 70.9938 34.6543 70.9999 34.2368 70.9999C34.1363 70.9999 34.0313 70.9999 33.9313 70.9938C31.7328 70.9804 29.5409 70.7527 27.3865 70.314C27.0625 70.2457 26.7384 70.1769 26.4204 70.1025C26.2269 70.0588 26.034 70.0086 25.8405 69.9588C23.6356 69.4046 21.4928 68.6277 19.445 67.64C19.0958 67.4783 18.7471 67.3034 18.4105 67.123L18.7034 65.5082L19.4324 61.4942L22.5475 55.884L24.4171 52.7688L29.4038 47.1586L30.5198 46.523L31.9909 45.6814L33.7695 44.666L37.5097 42.1724L43.1194 40.9258L47.4831 40.3023L55.5865 40.9258L61.8197 42.7959L65.5599 44.666L65.9217 44.9092L67.2863 45.8171Z" fill="#24BC48"/>
<path d="M64.0451 53.6276C63.939 53.8286 63.8205 54.02 63.7024 54.2135C62.5806 56.1035 61.2778 57.8801 59.8125 59.5182C59.4698 59.9046 59.1146 60.285 58.7529 60.6528C52.8 66.7549 44.5906 70.6513 35.4899 70.9749C35.0724 70.994 34.6543 71 34.2368 71C34.1363 71 34.0313 71 33.9313 70.994C31.7328 70.9805 29.5409 70.7529 27.3866 70.3142C27.0625 70.2458 26.7384 70.177 26.4204 70.1026L26.9128 68.9742L26.9876 68.6315L28.1593 63.3639L30.6529 57.1306L35.6396 52.7675L38.7548 50.8974L43.7415 49.0273L49.3532 47.7812L53.7164 48.4043L58.7031 49.6513L61.8182 52.1444L62.7473 52.7614L64.0451 53.6276Z" fill="#239942"/>
<path d="M35.0161 70.2206L35.6396 65.8574L38.7563 60.8707L43.743 57.1305L49.9762 55.884L54.9629 57.7541L57.4566 59.0006L58.7031 59.6241L54.9629 63.3638L48.7297 67.1039L41.8729 69.5976L36.8862 70.2206H35.0161Z" fill="#24BC48"/>
<path d="M56.6084 10.767C56.6024 10.7605 56.5964 10.7545 56.5964 10.7479C56.1351 10.3555 55.6613 9.96866 55.181 9.59233H55.175C55.1297 9.54999 55.0818 9.51039 55.0318 9.47376C54.9629 9.42351 54.8946 9.37327 54.8258 9.318C54.6751 9.23711 54.5203 9.16727 54.3585 9.09994C53.7714 8.85695 53.1479 8.71363 52.5136 8.67588C52.395 8.66985 52.2764 8.66332 52.1578 8.66332C51.8403 8.66193 51.5233 8.68917 51.2107 8.74471C52.1828 9.33483 53.1232 9.97566 54.0279 10.6645C54.5796 10.9388 55.0647 11.3303 55.4493 11.8116C55.6302 11.9674 55.8045 12.1171 55.9789 12.2789C56.6521 12.8713 57.2943 13.4943 57.9178 14.1429C63.5155 20.0215 66.9617 27.9746 66.9617 36.714C66.9617 37.2747 66.9492 37.836 66.918 38.3967V38.4032C66.8994 38.777 66.8748 39.1448 66.8436 39.5126C66.8125 39.8492 66.7808 40.1859 66.7431 40.5175C66.6041 41.7016 66.4001 42.8773 66.1322 44.0391C66.0699 44.332 65.995 44.6189 65.9207 44.9058C65.8578 45.1485 65.7895 45.3917 65.7197 45.6288C65.2855 47.1851 64.73 48.705 64.0581 50.1744C63.8069 50.7477 63.5346 51.3089 63.2416 51.8576C63.0794 52.1625 62.9176 52.468 62.7493 52.7619C62.6618 52.9182 62.5744 53.074 62.481 53.2297C61.3759 55.1189 60.0833 56.8919 58.6227 58.5219C58.2796 58.9083 57.9193 59.2886 57.5505 59.6625C51.8966 65.4033 44.1484 69.0752 35.5527 69.4098C35.1166 69.4344 34.68 69.4409 34.2373 69.4409C34.1564 69.4409 34.0755 69.4409 33.9941 69.4344C31.8048 69.4249 29.6223 69.1914 27.4805 68.7375C27.3182 68.7064 27.1499 68.6687 26.9881 68.6315C26.6364 68.5506 26.2963 68.4692 25.9531 68.3758C24.6113 68.0242 23.2933 67.587 22.0074 67.0669C21.2161 66.7489 20.4303 66.3936 19.6701 66.0118C19.346 65.85 19.0219 65.6817 18.7039 65.5093C18.5356 65.4224 18.3733 65.335 18.2115 65.2415C9.83383 60.5186 3.7312 52.2073 2.01085 42.4082C1.9174 41.8972 1.84253 41.3862 1.7737 40.8687C1.23156 40.9873 0.71857 41.1119 0.252808 41.2305L0.48996 42.7765C2.35351 53.1986 8.94853 62.0063 17.9683 66.887C18.1115 66.9679 18.2612 67.0428 18.411 67.1242C18.7476 67.3046 19.0963 67.4794 19.4455 67.6412C20.0439 67.9341 20.6549 68.2024 21.2784 68.4577C22.7612 69.0675 24.286 69.5696 25.841 69.96C26.0345 70.0102 26.2274 70.0604 26.4209 70.1037C26.7389 70.178 27.063 70.2468 27.387 70.3152C29.5412 70.7535 31.733 70.9809 33.9313 70.994C34.0318 71 34.1373 71 34.2368 71C34.6543 71 35.0724 70.994 35.4899 70.9749C44.5906 70.6508 52.7999 66.7544 58.7529 60.6528C59.1146 60.285 59.4698 59.9046 59.8125 59.5183C61.2779 57.8798 62.5806 56.1029 63.7024 54.2125C63.8205 54.0191 63.939 53.8261 64.0451 53.6266C64.2008 53.3649 64.3465 53.1031 64.4817 52.8348C64.9429 51.9807 65.3665 51.1019 65.7468 50.2045C66.2589 49.016 66.7017 47.7987 67.0728 46.5588C67.1481 46.3076 67.2235 46.0664 67.2848 45.8172C67.3722 45.5364 67.4471 45.25 67.5154 44.9571C67.7586 43.9909 67.958 43.0056 68.1078 42.0087C68.1513 41.7408 68.1887 41.4728 68.2198 41.2048C68.2821 40.7999 68.3258 40.3944 68.3635 39.9834C68.469 38.9047 68.5193 37.8229 68.5193 36.7175C68.5208 26.3562 63.9019 17.05 56.6084 10.767Z" fill="#131414"/>
<path d="M56.0478 12.8983C56.038 12.6914 56.015 12.4853 55.979 12.2813C55.8303 11.3243 55.44 10.4211 54.845 9.65706C54.8133 9.61335 54.7761 9.56361 54.739 9.51989C54.7324 9.51386 54.7264 9.50733 54.7264 9.5013C54.6078 9.36414 54.4892 9.22697 54.3586 9.10237C53.9653 8.70971 53.5157 8.37782 53.0246 8.11758C53.0214 8.11392 53.0169 8.11159 53.0121 8.11105C52.9995 8.09246 52.9749 8.08643 52.9558 8.07387C52.1325 7.64342 51.2169 7.41927 50.2878 7.4207C49.9704 7.41938 49.6534 7.44645 49.3407 7.50159C48.256 7.68245 47.2456 8.16982 46.4287 8.90617C45.6119 9.64253 45.0228 10.5972 44.7308 11.6574C44.4388 12.7177 44.4561 13.8394 44.7808 14.8901C45.1055 15.9408 45.7239 16.8767 46.5632 17.5875C47.4024 18.2982 48.4274 18.754 49.5172 18.9012C50.6071 19.0484 51.7163 18.8808 52.714 18.4182C53.7117 17.9555 54.5563 17.2172 55.148 16.2903C55.7398 15.3633 56.0541 14.2864 56.0538 13.1867C56.0538 13.0917 56.0538 12.9983 56.0478 12.8983ZM50.2878 17.3926C49.172 17.3926 48.1018 16.9493 47.3127 16.1603C46.5237 15.3712 46.0804 14.3011 46.0804 13.1852C46.0804 12.0693 46.5237 10.9991 47.3127 10.2101C48.1018 9.42104 49.172 8.97776 50.2878 8.97776C50.9375 8.97472 51.5786 9.12646 52.1579 9.42041C52.7097 9.69438 53.1948 10.0857 53.5793 10.567C54.0727 11.1861 54.3814 11.9319 54.4697 12.7186C54.558 13.5054 54.4224 14.3011 54.0785 15.0141C53.7347 15.7272 53.1965 16.3288 52.5259 16.7495C51.8553 17.1703 51.0795 17.3932 50.2878 17.3926Z" fill="#131414"/>
<path d="M32.4104 46.0039C31.9676 46.3094 31.5322 46.6276 31.1041 46.9586C30.674 46.6219 30.2314 46.3054 29.7887 46.0039C23.1595 41.5282 15.337 40.8429 8.99075 41.3498C8.46067 41.3936 7.93563 41.4438 7.43319 41.5006C5.61071 41.7049 3.8005 42.0068 2.01035 42.405C1.46772 42.5301 0.955232 42.6562 0.48947 42.7733L0.252319 41.2293C0.72009 41.1107 1.23107 40.9861 1.7732 40.8675C3.64162 40.4565 5.5311 40.1479 7.43319 39.943C7.93814 39.8807 8.46168 39.831 8.99075 39.7923C12.0702 39.5556 15.4858 39.5913 18.9581 40.1726C19.1822 40.2098 19.4068 40.2535 19.6314 40.2972L20.2047 40.4098C22.1028 40.7916 23.9603 41.353 25.7521 42.0864C26.2324 42.2874 26.7183 42.4979 27.1921 42.7285C28.5575 43.38 29.8653 44.1458 31.1016 45.0176C31.5442 45.3307 31.9803 45.6613 32.4104 46.0039Z" fill="#131414"/>
<path d="M68.365 39.9827C68.3273 40.3937 68.2836 40.7991 68.2213 41.2041C68.1902 41.4721 68.1528 41.74 68.1093 42.008C67.7415 41.6025 67.2742 41.0976 66.7441 40.5183C64.145 37.6946 60.0743 33.2063 58.4037 31.1227C57.9861 30.5991 57.6058 30.3373 57.2691 30.3373C56.8828 30.3373 56.4341 30.6554 55.9603 31.1292C55.4865 31.603 54.9881 32.226 54.4957 32.843C53.9284 33.554 53.3486 34.289 52.7065 34.9251C52.4698 35.1623 51.7519 35.8853 50.8429 35.7481C49.7768 35.5919 49.1909 34.489 48.3056 32.8244C47.4329 31.1789 46.23 28.9285 44.1293 26.8218C43.7178 26.4163 43.238 26.2545 42.622 26.3234C38.7633 26.7655 32.1125 35.4487 28.416 40.8906C27.9608 41.5573 27.5493 42.1809 27.1941 42.7295C27.0258 42.9913 26.87 43.2405 26.7268 43.4711L25.8415 42.9184L25.4054 42.6441C25.4798 42.5195 25.5984 42.3326 25.7541 42.0914C26.0908 41.5679 26.5957 40.7886 27.2378 39.841C30.6102 34.8668 37.6479 25.3235 42.4472 24.7814C43.5259 24.6563 44.4921 24.9869 45.2277 25.729C47.5027 27.9975 48.7618 30.3665 49.6843 32.0989C50.1456 32.9656 50.7816 34.1624 51.0746 34.2122C51.0746 34.2122 51.2303 34.2061 51.6107 33.8323C52.184 33.2525 52.7386 32.5541 53.2747 31.8808C54.5404 30.2851 55.7367 28.7833 57.2641 28.7833H57.2701C58.0997 28.7833 58.8976 29.2445 59.6266 30.1545C61.048 31.9371 64.3767 35.621 66.9195 38.401V38.4075C67.4425 38.9788 67.9349 39.5089 68.365 39.9827Z" fill="#131414"/>
<path d="M32.2537 42.2676L30.9242 41.4506C31.1317 41.1135 36.0491 33.1603 39.2904 31.2174L40.0943 32.5539C37.669 34.0075 33.6103 40.0583 32.2537 42.2676Z" fill="#131414"/>
<path d="M37.0853 11.7875L37.0782 13.346L43.3114 13.3743L43.3185 11.8157L37.0853 11.7875Z" fill="#131414"/>
<path d="M43.7516 15.2114L37.8198 17.1262L38.2986 18.6094L44.2304 16.6946L43.7516 15.2114Z" fill="#131414"/>
<path d="M38.5898 6.00684L37.8345 7.37013L43.2867 10.3911L44.0421 9.02784L38.5898 6.00684Z" fill="#131414"/>
<path d="M42.6909 2.16931L41.4817 3.15268L45.4146 7.98861L46.6237 7.00524L42.6909 2.16931Z" fill="#131414"/>
<path d="M48.7617 0.0178223L47.2179 0.232039L48.0746 6.40614L49.6184 6.19193L48.7617 0.0178223Z" fill="#131414"/>
<path d="M52.7992 0L51.2565 6.03933L52.7665 6.42508L54.3093 0.385756L52.7992 0Z" fill="#131414"/>
<path d="M57.7305 2.10608L54.057 7.14186L55.3162 8.06038L58.9897 3.0246L57.7305 2.10608Z" fill="#131414"/>
<path d="M63.2411 51.8573C62.3585 51.2062 61.4294 50.6206 60.4611 50.1053C57.1771 48.3431 53.521 47.3874 49.7947 47.3169C46.0684 47.2465 42.3789 48.0635 39.0306 49.7003C31.918 53.1847 26.8133 60.1596 25.9526 68.3755C25.8968 68.899 25.8591 69.4306 25.8405 69.9587C26.034 70.0089 26.2269 70.0592 26.4204 70.1024C26.7384 70.1767 27.0625 70.2456 27.3865 70.3139C27.3991 69.7843 27.4303 69.2588 27.48 68.7372C28.3402 59.7235 34.6649 52.2874 43.0948 49.7812C46.3711 48.8047 49.8304 48.6078 53.1964 49.2064C56.5623 49.8049 59.7417 51.1823 62.4804 53.2284C62.898 53.54 63.3095 53.8706 63.7024 54.2132C63.8205 54.0198 63.939 53.8269 64.045 53.6274C64.2008 53.3656 64.3465 53.1038 64.4817 52.8355C64.0827 52.4929 63.6647 52.1688 63.2411 51.8573Z" fill="#131414"/>
<path d="M58.6222 58.5208C55.9539 56.5029 52.6986 55.4133 49.3532 55.4182C41.3182 55.4182 34.7046 61.5897 33.9936 69.4363C33.946 69.9037 33.9232 70.3733 33.9253 70.8431C33.9243 70.8934 33.9263 70.9438 33.9313 70.9939C34.0318 70.9999 34.1373 70.9999 34.2368 70.9999C34.6543 70.9999 35.0724 70.9939 35.4899 70.9748C35.4849 70.9314 35.4828 70.8878 35.4839 70.8441C35.4839 70.3578 35.5085 69.8779 35.5522 69.4107C36.2732 62.4353 42.1909 56.9758 49.3532 56.9758C52.3024 56.972 55.1752 57.9135 57.55 59.6623C57.9703 59.9685 58.372 60.2996 58.7528 60.6536C59.1146 60.2859 59.4698 59.9055 59.8125 59.5191C59.4332 59.1661 59.0359 58.8328 58.6222 58.5208Z" fill="#131414"/>
<path d="M66.1332 44.0405C61.0394 40.8431 55.1383 39.1673 49.1243 39.2104C43.1103 39.2535 37.2338 41.0136 32.1863 44.2837C31.8186 44.5204 31.4568 44.7696 31.1016 45.0193C30.771 45.2559 30.4409 45.4991 30.1228 45.7423L29.7862 46.0041C23.8333 50.7039 19.6073 57.4858 18.211 65.2405C18.1175 65.7824 18.0365 66.3309 17.9678 66.886C18.111 66.9669 18.2607 67.0417 18.4105 67.1231C18.7471 67.3035 19.0958 67.4783 19.445 67.6401C19.5012 67.098 19.5761 66.5493 19.6696 66.0132C20.9161 58.2757 25.1301 51.5269 31.1016 46.9577C31.2448 46.8517 31.3819 46.7457 31.5256 46.6397C31.8186 46.4216 32.1115 46.2096 32.4104 46.0041C32.735 45.786 33.0591 45.5679 33.3892 45.3619C38.2418 42.3154 43.8652 40.7217 49.5947 40.7692C55.3242 40.8167 60.9203 42.5035 65.7217 45.6302C66.1829 45.9232 66.6321 46.2332 67.0742 46.5588C67.1496 46.3075 67.225 46.0664 67.2863 45.8172C67.3737 45.5363 67.4486 45.2499 67.5169 44.957C67.0622 44.6389 66.607 44.3335 66.1332 44.0405Z" fill="#131414"/>
<path d="M8.99067 30.3269V41.3499C8.4606 41.3936 7.93555 41.4439 7.43311 41.5007V30.3269H8.99067Z" fill="#131414"/>
<path d="M8.88567 16.2393L8.23702 15.0365L7.53361 16.2082C7.23214 16.7066 0.209039 28.5069 3.03928 33.668C3.84972 35.1517 5.33292 35.9556 7.43362 36.0676C7.52104 36.0742 7.60847 36.0802 7.70192 36.0802C7.80794 36.0867 7.90742 36.0867 8.00741 36.0867C8.33637 36.0896 8.66522 36.0728 8.99219 36.0365C10.9246 35.8561 12.3148 35.0894 13.1313 33.7614C15.6053 29.7349 11.8963 21.831 8.88567 16.2393ZM11.8044 32.945C11.2683 33.8112 10.3473 34.3226 8.99068 34.4719C8.57468 34.518 8.15595 34.5348 7.7376 34.5221C7.63158 34.5221 7.5321 34.5156 7.43211 34.5096C5.93032 34.4091 4.93901 33.8926 4.40893 32.9198C2.62628 29.6726 6.05493 22.0862 8.17422 18.2215C12.0209 25.652 13.2428 30.6011 11.8044 32.945Z" fill="#131414"/>
<path d="M20.2057 33.8181H18.9591V40.9241H20.2057V33.8181Z" fill="#131414"/>
<path d="M20.1248 25.2966L19.6073 24.3304L19.0395 25.2655C18.5873 26.0257 14.6331 32.777 16.3409 35.8996C16.8398 36.804 17.7186 37.3065 18.9591 37.4019C19.062 37.4198 19.1662 37.4282 19.2706 37.427H19.4575C19.7078 37.4296 19.958 37.4128 20.2057 37.3768C21.3462 37.2457 22.1692 36.7658 22.6676 35.9619C24.195 33.4748 21.9446 28.6816 20.1248 25.2966ZM21.6019 35.3077C21.3276 35.7439 20.8724 36.0247 20.2057 36.1307C19.9066 36.177 19.6037 36.1938 19.3013 36.181C19.1827 36.1745 19.0641 36.1684 18.9586 36.1619C18.2105 36.081 17.7116 35.7946 17.4372 35.3017C16.4323 33.4819 18.2914 29.2493 19.557 26.8929C21.7326 31.1506 22.4249 33.9738 21.6019 35.3077Z" fill="#131414"/>
<path d="M55.183 9.59587C55.183 9.59587 53.6301 8.36188 53.0498 8.12423C52.4694 7.88658 52.4698 9.13363 52.4698 9.13363L54.34 9.75716L55.183 9.59587Z" fill="#131414"/>
<path d="M50.2878 17.8606C52.8698 17.8606 54.963 15.7674 54.963 13.1854C54.963 10.6034 52.8698 8.51019 50.2878 8.51019C47.7057 8.51019 45.6125 10.6034 45.6125 13.1854C45.6125 15.7674 47.7057 17.8606 50.2878 17.8606Z" fill="#E07103"/>
</g>
<defs>
<clipPath id="clip0">
<rect width="69" height="71" fill="white"/>
</clipPath>
</defs>
</svg>
