<svg width="21" height="16" viewBox="0 0 21 16" fill="none" xmlns="http://www.w3.org/2000/svg">
<path d="M19.3238 1.8802L21 0.337807V0H15.1949L11.0578 9.909L6.35195 0H0.265234V0.337807L2.22305 2.60556C2.41445 2.77316 2.51289 3.01931 2.48828 3.26547V12.1768C2.54844 12.4989 2.4418 12.8262 2.20664 13.0592L0 15.6334V15.966H6.25078V15.6282L4.04688 13.0619C3.92879 12.9471 3.83997 12.8077 3.78733 12.6546C3.73468 12.5016 3.71964 12.3389 3.74336 12.1794V4.47005L9.23125 15.9712H9.86836L14.5879 4.47005V13.6327C14.5879 13.8736 14.5879 13.9234 14.4238 14.0831L12.7258 15.6622V16H20.9617V15.6622L19.3238 14.1198C19.1816 14.0151 19.1078 13.8396 19.1379 13.6694V2.33061C19.1237 2.24646 19.1335 2.16021 19.1663 2.08094C19.199 2.00167 19.2534 1.93232 19.3238 1.8802Z" fill="white"/>
</svg>
