<svg width="25" height="18" viewBox="0 0 25 18" fill="none" xmlns="http://www.w3.org/2000/svg">
<path d="M23.0046 2.09411L25 0.376239V0H18.0892L13.1641 11.0363L7.56185 0H0.315755V0.376239L2.64648 2.902C2.87435 3.08866 2.99154 3.36282 2.96224 3.63698V13.5621C3.03385 13.9208 2.9069 14.2854 2.62695 14.545L0 17.412V17.7824H7.44141V17.4062L4.81771 14.5479C4.67713 14.42 4.57139 14.2648 4.50872 14.0943C4.44605 13.9239 4.42814 13.7427 4.45638 13.565V4.9786L10.9896 17.7882H11.748L17.3665 4.9786V15.1837C17.3665 15.452 17.3665 15.5075 17.1712 15.6854L15.1497 17.4441V17.8203H24.9544V17.4441L23.0046 15.7262C22.8353 15.6095 22.7474 15.4141 22.7832 15.2246V2.59576C22.7663 2.50203 22.778 2.40597 22.817 2.31769C22.8559 2.2294 22.9207 2.15216 23.0046 2.09411Z" fill="#6FCF97"/>
</svg>
