<svg width="25" height="19" viewBox="0 0 25 19" fill="none" xmlns="http://www.w3.org/2000/svg">
<path d="M24.1071 0.0571289H0.892857C0.398996 0.0571289 0 0.432228 0 0.896512V17.6842C0 18.1485 0.398996 18.5236 0.892857 18.5236H24.1071C24.601 18.5236 25 18.1485 25 17.6842V0.896512C25 0.432228 24.601 0.0571289 24.1071 0.0571289ZM21.8527 2.91365L13.0497 9.3533C12.832 9.51331 12.5279 9.51331 12.3103 9.3533L3.50446 2.91365C3.47127 2.88957 3.44692 2.85633 3.43484 2.81858C3.42275 2.78084 3.42353 2.74048 3.43706 2.70317C3.4506 2.66586 3.47621 2.63347 3.51032 2.61054C3.54442 2.5876 3.5853 2.57527 3.62723 2.57528H21.7299C21.7718 2.57527 21.8127 2.5876 21.8468 2.61054C21.8809 2.63347 21.9065 2.66586 21.9201 2.70317C21.9336 2.74048 21.9344 2.78084 21.9223 2.81858C21.9102 2.85633 21.8859 2.88957 21.8527 2.91365Z" fill="#6FCF97"/>
</svg>
