 <svg
                          width="48"
                          height="44"
                          viewBox="0 0 48 44"
                          fill="none"
                          xmlns="http://www.w3.org/2000/svg"
                        >
                          <path
                            d="M44.5832 0.536865L26.3806 14.0055L29.7656 6.068L44.5832 0.536865Z"
                            fill="#E17726"
                            stroke="#E17726"
                            stroke-width="0.346477"
                            stroke-linecap="round"
                            stroke-linejoin="round"
                          />
                          <path
                            d="M2.59644 0.536865L20.637 14.1312L17.4142 6.06799L2.59644 0.536865Z"
                            fill="#E27625"
                            stroke="#E27625"
                            stroke-width="0.346477"
                            stroke-linecap="round"
                            stroke-linejoin="round"
                          />
                          <path
                            d="M38.0292 31.7661L33.186 39.1649L43.5566 42.0203L46.5275 31.9279L38.0292 31.7661Z"
                            fill="#E27625"
                            stroke="#E27625"
                            stroke-width="0.346477"
                            stroke-linecap="round"
                            stroke-linejoin="round"
                          />
                          <path
                            d="M0.669922 31.9279L3.62265 42.0203L13.9753 39.1649L9.15005 31.7661L0.669922 31.9279Z"
                            fill="#E27625"
                            stroke="#E27625"
                            stroke-width="0.346477"
                            stroke-linecap="round"
                            stroke-linejoin="round"
                          />
                          <path
                            d="M13.4171 19.2673L10.5364 23.6133L20.7989 24.0802L20.4569 13.0359L13.4171 19.2673Z"
                            fill="#E27625"
                            stroke="#E27625"
                            stroke-width="0.346477"
                            stroke-linecap="round"
                            stroke-linejoin="round"
                          />
                          <path
                            d="M33.7621 19.2673L26.6145 12.9102L26.3804 24.0802L36.6429 23.6133L33.7621 19.2673Z"
                            fill="#E27625"
                            stroke="#E27625"
                            stroke-width="0.346477"
                            stroke-linecap="round"
                            stroke-linejoin="round"
                          />
                          <path
                            d="M13.9753 39.1648L20.1868 36.1658L14.8396 31.9995L13.9753 39.1648Z"
                            fill="#E27625"
                            stroke="#E27625"
                            stroke-width="0.346477"
                            stroke-linecap="round"
                            stroke-linejoin="round"
                          />
                          <path
                            d="M26.9927 36.1658L33.1862 39.1648L32.3399 31.9995L26.9927 36.1658Z"
                            fill="#E27625"
                            stroke="#E27625"
                            stroke-width="0.346477"
                            stroke-linecap="round"
                            stroke-linejoin="round"
                          />
                          <path
                            d="M33.1862 39.165L26.9927 36.166L27.4967 40.1886L27.4427 41.8947L33.1862 39.165Z"
                            fill="#D5BFB2"
                            stroke="#D5BFB2"
                            stroke-width="0.346477"
                            stroke-linecap="round"
                            stroke-linejoin="round"
                          />
                          <path
                            d="M13.9753 39.165L19.7368 41.8947L19.7008 40.1886L20.1868 36.166L13.9753 39.165Z"
                            fill="#D5BFB2"
                            stroke="#D5BFB2"
                            stroke-width="0.346477"
                            stroke-linecap="round"
                            stroke-linejoin="round"
                          />
                          <path
                            d="M19.8449 29.3419L14.6956 27.8335L18.3325 26.1633L19.8449 29.3419Z"
                            fill="#233447"
                            stroke="#233447"
                            stroke-width="0.346477"
                            stroke-linecap="round"
                            stroke-linejoin="round"
                          />
                          <path
                            d="M27.3347 29.3419L28.8472 26.1633L32.5021 27.8335L27.3347 29.3419Z"
                            fill="#233447"
                            stroke="#233447"
                            stroke-width="0.346477"
                            stroke-linecap="round"
                            stroke-linejoin="round"
                          />
                          <path
                            d="M13.9753 39.1649L14.8756 31.7661L9.15015 31.9279L13.9753 39.1649Z"
                            fill="#CC6228"
                            stroke="#CC6228"
                            stroke-width="0.346477"
                            stroke-linecap="round"
                            stroke-linejoin="round"
                          />
                          <path
                            d="M32.304 31.7661L33.1862 39.1649L38.0294 31.9279L32.304 31.7661Z"
                            fill="#CC6228"
                            stroke="#CC6228"
                            stroke-width="0.346477"
                            stroke-linecap="round"
                            stroke-linejoin="round"
                          />
                          <path
                            d="M36.6429 23.613L26.3804 24.0799L27.3346 29.3418L28.847 26.1631L32.5019 27.8333L36.6429 23.613Z"
                            fill="#CC6228"
                            stroke="#CC6228"
                            stroke-width="0.346477"
                            stroke-linecap="round"
                            stroke-linejoin="round"
                          />
                          <path
                            d="M14.6954 27.8333L18.3323 26.1631L19.8447 29.3418L20.7989 24.0799L10.5364 23.613L14.6954 27.8333Z"
                            fill="#CC6228"
                            stroke="#CC6228"
                            stroke-width="0.346477"
                            stroke-linecap="round"
                            stroke-linejoin="round"
                          />
                          <path
                            d="M10.5366 23.613L14.8397 31.9996L14.6956 27.8333L10.5366 23.613Z"
                            fill="#E27525"
                            stroke="#E27525"
                            stroke-width="0.346477"
                            stroke-linecap="round"
                            stroke-linejoin="round"
                          />
                          <path
                            d="M32.5021 27.8333L32.3401 31.9996L36.6432 23.613L32.5021 27.8333Z"
                            fill="#E27525"
                            stroke="#E27525"
                            stroke-width="0.346477"
                            stroke-linecap="round"
                            stroke-linejoin="round"
                          />
                          <path
                            d="M20.7996 24.0801L19.8452 29.3419L21.0515 35.5554L21.3216 27.3665L20.7996 24.0801Z"
                            fill="#E27525"
                            stroke="#E27525"
                            stroke-width="0.346477"
                            stroke-linecap="round"
                            stroke-linejoin="round"
                          />
                          <path
                            d="M26.3807 24.0801L25.8765 27.3486L26.1286 35.5554L27.3349 29.3419L26.3807 24.0801Z"
                            fill="#E27525"
                            stroke="#E27525"
                            stroke-width="0.346477"
                            stroke-linecap="round"
                            stroke-linejoin="round"
                          />
                          <path
                            d="M27.3347 29.3421L26.1284 35.5555L26.9927 36.1661L32.34 31.9998L32.5021 27.8335L27.3347 29.3421Z"
                            fill="#F5841F"
                            stroke="#F5841F"
                            stroke-width="0.346477"
                            stroke-linecap="round"
                            stroke-linejoin="round"
                          />
                          <path
                            d="M14.6956 27.8335L14.8397 31.9998L20.1869 36.1661L21.0512 35.5555L19.8449 29.3421L14.6956 27.8335Z"
                            fill="#F5841F"
                            stroke="#F5841F"
                            stroke-width="0.346477"
                            stroke-linecap="round"
                            stroke-linejoin="round"
                          />
                          <path
                            d="M27.4427 41.8947L27.4967 40.1887L27.0286 39.7935H20.1509L19.7008 40.1887L19.7368 41.8947L13.9753 39.165L15.9918 40.8172L20.0789 43.6367H27.0825L31.1876 40.8172L33.1861 39.165L27.4427 41.8947Z"
                            fill="#C0AC9D"
                            stroke="#C0AC9D"
                            stroke-width="0.346477"
                            stroke-linecap="round"
                            stroke-linejoin="round"
                          />
                          <path
                            d="M26.9925 36.1659L26.1282 35.5554H21.051L20.1869 36.1659L19.7007 40.1886L20.1508 39.7935H27.0285L27.4967 40.1886L26.9925 36.1659Z"
                            fill="#161616"
                            stroke="#161616"
                            stroke-width="0.346477"
                            stroke-linecap="round"
                            stroke-linejoin="round"
                          />
                          <path
                            d="M45.3572 14.8854L46.8876 7.45078L44.583 0.536865L26.9927 13.5566L33.7623 19.2672L43.3227 22.0508L45.4292 19.5906L44.5111 18.926L45.9693 17.5972L44.8531 16.7352L46.3115 15.6218L45.3572 14.8854Z"
                            fill="#763E1A"
                            stroke="#763E1A"
                            stroke-width="0.346477"
                            stroke-linecap="round"
                            stroke-linejoin="round"
                          />
                          <path
                            d="M0.291992 7.45102L1.84038 14.8857L0.850138 15.622L2.3265 16.7354L1.21022 17.5975L2.66859 18.9263L1.75035 19.5908L3.85689 22.0511L13.4174 19.2675L20.187 13.5569L2.59657 0.537109L0.291992 7.45102Z"
                            fill="#763E1A"
                            stroke="#763E1A"
                            stroke-width="0.346477"
                            stroke-linecap="round"
                            stroke-linejoin="round"
                          />
                          <path
                            d="M43.3228 22.0508L33.7624 19.2673L36.6432 23.6133L32.3401 31.9997L38.0295 31.9279H46.5276L43.3228 22.0508Z"
                            fill="#F5841F"
                            stroke="#F5841F"
                            stroke-width="0.346477"
                            stroke-linecap="round"
                            stroke-linejoin="round"
                          />
                          <path
                            d="M13.4171 19.2673L3.85672 22.0508L0.669922 31.9279H9.15005L14.8394 31.9997L10.5364 23.6133L13.4171 19.2673Z"
                            fill="#F5841F"
                            stroke="#F5841F"
                            stroke-width="0.346477"
                            stroke-linecap="round"
                            stroke-linejoin="round"
                          />
                          <path
                            d="M26.3803 24.0802L26.9925 13.5566L29.7651 6.06812H17.4141L20.1867 13.5566L20.7989 24.0802L21.0329 27.3845L21.051 35.5555H26.1282L26.1462 27.3845L26.3803 24.0802Z"
                            fill="#F5841F"
                            stroke="#F5841F"
                            stroke-width="0.346477"
                            stroke-linecap="round"
                            stroke-linejoin="round"
                          />
                        </svg>