<svg width="18" height="23" viewBox="0 0 18 23" fill="none" xmlns="http://www.w3.org/2000/svg">
<path d="M18 20.1253C18 20.9146 17.7041 21.5917 17.1123 22.1546C16.5205 22.7185 15.8112 23 14.9827 23H9.01772C6.53251 23 4.40876 22.1601 2.64518 20.4781C0.881127 18.7964 0 16.7721 0 14.4023V2.87744C0 2.06529 0.293773 1.38315 0.881127 0.829726C1.46848 0.277104 2.18598 0 3.03282 0C3.85504 0 4.56152 0.282279 5.14808 0.846194C5.73642 1.40951 6.03101 2.08539 6.03101 2.87544V7.04847H14.5236C15.2946 7.04847 15.9552 7.30989 16.5062 7.83314C17.0566 8.35547 17.3312 8.98238 17.3312 9.71447C17.3312 10.4452 17.0567 11.0732 16.5082 11.5959C15.9596 12.118 15.3003 12.3798 14.5326 12.3798H6.03101V14.3996C6.03101 15.1917 6.32003 15.8644 6.90096 16.4194C7.48125 16.9729 8.18581 17.2499 9.01471 17.2499H14.9816C15.8096 17.2499 16.5205 17.5325 17.1123 18.0962C17.7041 18.6601 18 19.3364 18 20.1254" fill="white"/>
</svg>
