<svg width="25" height="22" viewBox="0 0 25 22" fill="none" xmlns="http://www.w3.org/2000/svg">
<path d="M12.5 0.940674C5.59639 0.940674 0 5.47375 0 11.0657C0 16.6576 5.59639 21.1907 12.5 21.1907C19.4036 21.1907 25 16.6576 25 11.0657C25 5.47375 19.4036 0.940674 12.5 0.940674Z" fill="#40B3E0"/>
<path d="M18.5824 6.76498L16.3497 15.8829C16.3497 15.8829 16.0375 16.5153 15.1788 16.2118L10.0266 13.0123L8.15316 12.2788L4.99944 11.4188C4.99944 11.4188 4.51546 11.2798 4.46858 10.9763C4.42171 10.6728 5.01507 10.5084 5.01507 10.5084L17.5518 6.52482C17.5518 6.52482 18.5823 6.15811 18.5823 6.76513" fill="white"/>
<path d="M9.63061 15.7803C9.63061 15.7803 9.48022 15.7689 9.29272 15.2883C9.10551 14.8077 8.15308 12.2786 8.15308 12.2786L15.7251 8.38364C15.7251 8.38364 16.1623 8.16864 16.1467 8.38364C16.1467 8.38364 16.2247 8.42161 15.9905 8.59864C15.7564 8.77574 10.0422 12.9362 10.0422 12.9362" fill="#D2E5F1"/>
</svg>
