<svg width="42" height="42" viewBox="0 0 42 42" fill="none" xmlns="http://www.w3.org/2000/svg">
<path d="M21 0C9.40193 0 0 9.40193 0 21C0 32.5981 9.40193 42 21 42C32.5981 42 42 32.5981 42 21C42 9.40193 32.5981 0 21 0Z" fill="#40B3E0"/>
<path d="M31.2183 12.08L27.4673 30.9914C27.4673 30.9914 26.9428 32.3029 25.5002 31.6734L16.8446 25.0374L13.6972 23.5162L8.39896 21.7325C8.39896 21.7325 7.58587 21.4441 7.50712 20.8146C7.42837 20.1851 8.42521 19.8441 8.42521 19.8441L29.4869 11.5819C29.4869 11.5819 31.2181 10.8214 31.2181 12.0804" fill="white"/>
<path d="M16.1795 30.7788C16.1795 30.7788 15.9269 30.7551 15.6119 29.7583C15.2974 28.7616 13.6973 23.5159 13.6973 23.5159L26.4183 15.4374C26.4183 15.4374 27.1529 14.9915 27.1266 15.4374C27.1266 15.4374 27.2577 15.5162 26.8641 15.8834C26.4708 16.2507 16.8711 24.8799 16.8711 24.8799" fill="#D2E5F1"/>
<path d="M20.1634 27.5814L16.7399 30.7029C16.7399 30.7029 16.4722 30.906 16.1795 30.7787L16.8351 24.9807" fill="#B5CFE4"/>
</svg>
