<svg width="25" height="19" viewBox="0 0 25 19" fill="none" xmlns="http://www.w3.org/2000/svg">
<path d="M25 2.45035C24.0801 2.80813 23.0916 3.04994 22.0541 3.15872C23.1132 2.60196 23.9264 1.7203 24.3093 0.669824C23.3025 1.19385 22.201 1.56306 21.0523 1.7615C20.1167 0.887218 18.7838 0.34082 17.3085 0.34082C14.4759 0.34082 12.1793 2.3551 12.1793 4.83945C12.1793 5.1921 12.2247 5.53541 12.3121 5.86475C8.04941 5.67708 4.27012 3.88611 1.74033 1.16431C1.29893 1.82874 1.046 2.60162 1.046 3.42597C1.046 4.98678 1.95156 6.3637 3.32773 7.17049C2.51323 7.14811 1.71665 6.95516 1.00449 6.60773C1.0042 6.62657 1.0042 6.64542 1.0042 6.66435C1.0042 8.84403 2.77217 10.6623 5.11846 11.0756C4.36317 11.2558 3.57093 11.2821 2.80225 11.1527C3.45488 12.94 5.34912 14.2406 7.59346 14.277C5.83809 15.4835 3.62646 16.2028 1.22354 16.2028C0.809473 16.2028 0.40127 16.1815 0 16.1399C2.26982 17.4164 4.96582 18.1611 7.8623 18.1611C17.2966 18.1611 22.4555 11.306 22.4555 5.36118C22.4555 5.16606 22.4506 4.97205 22.4406 4.77915C23.4448 4.14246 24.3114 3.35386 25 2.45035Z" fill="#55ACEE"/>
</svg>
